<svg xmlns="http://www.w3.org/2000/svg" xmlns:xlink="http://www.w3.org/1999/xlink" viewBox="0 0 56.83 169.72"><defs><style>.cls-1{fill:none;}.cls-2{clip-path:url(#clip-path);}.cls-3{fill:#151517;fill-opacity:0.5;stroke:url(#linear-gradient);}.cls-4{fill:#2e2e4e;stroke:#fff;stroke-width:0.25px;}.cls-5,.cls-8{fill:#fff;}.cls-6,.cls-7{fill:#7fe0ff;}.cls-7,.cls-8{fill-rule:evenodd;}</style><clipPath id="clip-path" transform="translate(0.09 0.04)"><rect class="cls-1" x="0.21" y="0.07" width="56.23" height="169.5" transform="translate(-0.21 0.07) rotate(-0.14)"/></clipPath><linearGradient id="linear-gradient" x1="193.34" y1="-613.1" x2="92.82" y2="-483.69" gradientTransform="matrix(0.91, 0, 0, -1.05, -103.44, -493.32)" gradientUnits="userSpaceOnUse"><stop offset="0" stop-color="#6ae4ff" stop-opacity="0"/><stop offset="0.49" stop-color="#6ae4ff"/><stop offset="1" stop-color="#a39d8c" stop-opacity="0"/><stop offset="1" stop-color="#6ae4ff" stop-opacity="0"/></linearGradient></defs><g id="Layer_2" data-name="Layer 2"><g id="Layer_1-2" data-name="Layer 1"><g class="cls-2"><rect class="cls-3" x="0.62" y="0.53" width="55.42" height="168.58" transform="translate(-0.12 0.11) rotate(-0.14)"/></g><path class="cls-4" d="M45.53,108.09V6" transform="translate(0.09 0.04)"/><path class="cls-5" d="M10.5,107.08v-2c0-1.2.34-2.14,1.45-2.14a1.33,1.33,0,0,1,1.25.76h0a1.31,1.31,0,0,1,1.37-1c1.18,0,1.71,1,1.71,2.27v2.16Zm2.33-1.93c0-.64-.26-.93-.69-.93s-.62.3-.62.92v.62h1.31Zm2.48-.12c0-.72-.26-1.09-.79-1.09s-.71.36-.71,1.09v.73h1.5Z" transform="translate(0.09 0.04)"/><path class="cls-5" d="M13.63,101.7H10.5v-1.31h3.26c1.14,0,1.54-.36,1.54-1s-.4-1-1.54-1H10.5V97.08h3.13c1.95,0,2.8.79,2.8,2.3S15.58,101.7,13.63,101.7Z" transform="translate(0.09 0.04)"/><path class="cls-5" d="M10.5,95.73V94.42h5.82v1.31Z" transform="translate(0.09 0.04)"/><path class="cls-5" d="M10.5,93V91.73h4.72v-2.3h1.1V93Z" transform="translate(0.09 0.04)"/><path class="cls-5" d="M11.61,88.35V90H10.5V85.43h1.11V87h4.71v1.32Z" transform="translate(0.09 0.04)"/><path class="cls-5" d="M10.5,83.3V82l2.72-.4,1.84-.24h0L13.22,81,10.5,80.3V79.19l2.72-.63,1.84-.35h0L13.22,78l-2.72-.4V76.28l5.82,1V79l-2.64.57c-.45.09-.92.17-1.35.23h0c.43.07.9.14,1.35.23l2.64.55v1.63Z" transform="translate(0.09 0.04)"/><path class="cls-5" d="M10.5,75.47V74.16h5.82v1.31Z" transform="translate(0.09 0.04)"/><path class="cls-5" d="M11.61,71.64v1.61H10.5V68.73h1.11v1.6h4.71v1.31Z" transform="translate(0.09 0.04)"/><path class="cls-5" d="M10.5,67.82V66.5h2.25v-2H10.5V63.18h5.82v1.31H13.89v2h2.43v1.32Z" transform="translate(0.09 0.04)"/><path class="cls-6" d="M23.68,115.1V104.7h3v6.86h3.62V105.7h3v5.86h6.08v3.54Z" transform="translate(0.09 0.04)"/><path class="cls-6" d="M36.35,101.44V97.79h-9.7v3.65h-3V90.59h3v3.66h9.7V90.59h3v10.85Z" transform="translate(0.09 0.04)"/><path class="cls-6" d="M23.68,86.26V82.73H36.35v-7h3v10.5Z" transform="translate(0.09 0.04)"/><path class="cls-6" d="M23.68,72.2V61.83h3v6.83h3.13v-5.8h3v5.8h3.6V61.59h3V72.2Z" transform="translate(0.09 0.04)"/><path class="cls-6" d="M31.59,58.72c-5.19,0-8.2-3.28-8.2-7.47a6.72,6.72,0,0,1,2-4.67l2.19,2a3.81,3.81,0,0,0-1.12,2.72c0,2.22,1.89,3.84,5,3.84s5.08-1.62,5.08-4a3.79,3.79,0,0,0-1.38-2.82l2.14-1.95a6.47,6.47,0,0,1,2.3,5.13C39.61,55.36,36.86,58.72,31.59,58.72Z" transform="translate(0.09 0.04)"/><path class="cls-6" d="M31.43,44.71c-5.23,0-8-2.57-8-6.29s2.81-6.29,8-6.29,8.18,2.56,8.18,6.29S36.78,44.71,31.43,44.71Zm0-9c-3.25,0-5,1-5,2.66s1.73,2.66,5,2.66,5.12-1,5.12-2.66S34.8,35.76,31.43,35.76Z" transform="translate(0.09 0.04)"/><path class="cls-6" d="M36.35,29.44V25.79h-9.7v3.65h-3V18.59h3v3.66h9.7V18.59h3V29.44Z" transform="translate(0.09 0.04)"/><path class="cls-6" d="M23.68,15.23V11.6l7.78-3.29L34.89,7V6.89c-1.64.16-3.84.49-5.68.49H23.68V4H39.32V7.63l-7.79,3.29-3.42,1.34v.09c1.73-.16,3.82-.49,5.66-.49h5.55v3.37Z" transform="translate(0.09 0.04)"/><path class="cls-7" d="M50,142.37a21.69,21.69,0,1,1-21.47-21.69A21.77,21.77,0,0,1,50,142.37" transform="translate(0.09 0.04)"/><path class="cls-8" d="M25.72,140.31l3.47.65.87-6.18,1.63.43-.87,6.08c1.41.43,2.93.65,4.23,1.19,1.52.54,3,1.08,4.44,1.73A5.84,5.84,0,0,1,43,148.66a4.33,4.33,0,0,1-.65,3.47,1.45,1.45,0,0,1-1,.65,1.58,1.58,0,0,1-1.2-.54,2,2,0,0,1,.11-1.09,4.76,4.76,0,0,1,1.2-.86,1.56,1.56,0,0,0,.32-2.39,6.49,6.49,0,0,0-3.25-1.84c-2.6-.65-5.1-1.3-7.7-1.85h-.43L29.52,150l-1.63-.22.87-6L25.4,143l-1,6.18L22.69,149l.86-6.4c-.65-.22-1.19-.33-1.73-.54a16.33,16.33,0,0,1-5.64-2.39,5.72,5.72,0,0,1-2.71-5.1,3.39,3.39,0,0,1,1.08-2.6.92.92,0,0,1,.55-.32,1.85,1.85,0,0,1,1.3.32,1.05,1.05,0,0,1-.22,1.41c-.32.33-.65.54-1,.87a1.48,1.48,0,0,0-.21,2.38A6.67,6.67,0,0,0,17.05,138c2.28.76,4.66,1.3,7.05,2.06l.86-6,1.63.43-.87,5.75" transform="translate(0.09 0.04)"/></g></g></svg>