<svg xmlns="http://www.w3.org/2000/svg" xmlns:xlink="http://www.w3.org/1999/xlink" viewBox="0 0 388.26 388.01"><defs><style>.cls-1{stroke:#2e2e4e;stroke-miterlimit:10;stroke-width:14px;fill:url(#New_Gradient_Swatch_1);}.cls-2{fill:#2e2e4e;}.cls-2,.cls-3{fill-rule:evenodd;}.cls-3{fill:url(#New_Gradient_Swatch_1-2);}</style><linearGradient id="New_Gradient_Swatch_1" x1="989.24" y1="-130.17" x2="1086.15" y2="-492.22" gradientTransform="translate(-760.82 -323.46) rotate(45)" gradientUnits="userSpaceOnUse"><stop offset="0" stop-color="#ff7a3b" stop-opacity="0.8"/><stop offset="1" stop-color="#f91e47" stop-opacity="0.8"/></linearGradient><linearGradient id="New_Gradient_Swatch_1-2" x1="158.85" y1="93.06" x2="240.45" y2="318.06" gradientTransform="matrix(1, 0, 0, 1, 0, 0)" xlink:href="#New_Gradient_Swatch_1"/></defs><g id="Layer_2" data-name="Layer 2"><g id="Layer_1-2" data-name="Layer 1"><path class="cls-1" d="M326.81,62.41h0A189.26,189.26,0,0,0,145.91,13h0a185,185,0,0,0-132.7,132.7h0c-16.9,65.1,1.2,133.9,48.3,180.9h0c47,47,115.8,65.1,180.9,48.3h0a184.74,184.74,0,0,0,132.7-132.6h0C391.91,178.21,373.81,110.71,326.81,62.41Z"/><path class="cls-2" d="M194.13,362.64C101.66,362.64,26,287,26,193.67c.84-92.47,75.66-168.13,169-167.29,92.47.84,167.29,75.66,167.29,169.81-.84,91.64-75.66,166.45-168.13,166.45"/><path class="cls-3" d="M210.1,174.34l-5,26.9L253,208l-3.37,12.61-47.07-6.72c-3.37,10.93-5,22.7-9.25,32.78-4.2,11.77-8.41,23.54-13.45,34.47-6.73,14.29-18.5,24.38-34.47,26.9-9.25,1.68-19.33.84-26.9-5-2.52-1.68-5-5-5-7.57,0-3.36,1.68-7.56,4.2-9.25,1.68-.84,5.88,0,8.41.84a37.54,37.54,0,0,1,6.72,9.25c5.05,6.73,11.77,7.57,18.5,2.52,7.56-6.72,11.77-16,14.29-25.22,5-20.17,10.09-39.51,14.29-59.68v-3.36l-44.56-6.73L137,191.15l46.23,6.73,5.89-26.06-47.92-7.57,1.68-13.45,49.6,6.72c1.68-5,2.52-9.24,4.2-13.45,4.2-15.13,8.41-30.26,18.5-43.71s21.85-21.86,39.51-21c7.56,0,15.13,2.53,20.17,8.41.84.84,2.52,2.52,2.52,4.2,0,3.37,0,7.57-2.52,10.09-3.36,2.52-7.56,1.68-10.93-1.68-2.52-2.52-4.2-5-6.72-7.57-5.05-6.72-12.61-7.56-18.5-1.68a53.9,53.9,0,0,0-10.92,16c-5.89,17.65-10.09,36.14-16,54.64L258,168.45l-3.36,12.61-44.56-6.72"/></g></g></svg>