<svg xmlns="http://www.w3.org/2000/svg" xmlns:xlink="http://www.w3.org/1999/xlink" viewBox="0 0 388.26 388.01"><defs><style>.cls-1{stroke:#2e2e4e;stroke-miterlimit:10;stroke-width:14px;fill:url(#linear-gradient);}.cls-2{fill:#2e2e4e;fill-rule:evenodd;}.cls-3{fill:#fff;}</style><linearGradient id="linear-gradient" x1="857.99" y1="-444.68" x2="954.9" y2="-806.73" gradientTransform="translate(-890.93 -6.97) rotate(45)" gradientUnits="userSpaceOnUse"><stop offset="0" stop-color="#ff7a3b" stop-opacity="0.8"/><stop offset="1" stop-color="#f91e47" stop-opacity="0.8"/></linearGradient></defs><g id="Layer_2" data-name="Layer 2"><g id="Layer_1-2" data-name="Layer 1"><path class="cls-1" d="M326.81,62.41h0A189.26,189.26,0,0,0,145.91,13h0a185,185,0,0,0-132.7,132.7h0c-16.9,65.1,1.2,133.9,48.3,180.9h0c47,47,115.8,65.1,180.9,48.3h0a184.74,184.74,0,0,0,132.7-132.6h0C391.91,178.21,373.81,110.71,326.81,62.41Z"/><path class="cls-2" d="M362.26,196.19c-.8,87.34-68.8,159.39-155.24,166-3.37.26-6.76.41-10.19.47h-.66l-2,0-2.59,0c-2.09,0-4.16-.1-6.23-.21C96.9,357.78,26,284,26,193.67A169.35,169.35,0,0,1,83.89,67.49,165.78,165.78,0,0,1,195,26.38a168.49,168.49,0,0,1,127.1,59.49A169.74,169.74,0,0,1,362.26,196.19Z"/><path class="cls-3" d="M262.07,163.37l-9.74-5.61-.11-.07L196.07,125l-55.78,32.55-.2.12L120.92,168.9l-.3.17v88.55l1.17.68,64.54,37.29,9.74,5.71,9.73-5.71,64.65-37.68,1.16-.69V168.68ZM205.8,272.86l-9.73,5.41-9.74-5.7-46-26.76V180.49l55.78-32.76,56.07,32.76.06,19.15.06,22,.07,24.18Z"/><path class="cls-3" d="M263.75,117.6h0l-.5-.27L196.07,78.27l-66.39,38.87-8.76,5.11v88.54l9.73,5.7,9.64,5.65.09.06,46,26.56,9.74,5.71,9.73-5.71,46.34-27.06.12-.07,9.61-5.53,9.74-5.7V121.85Zm-11.55,82L205.8,226l-9.73,5.71L186.33,226l-46-26.46V133.66l55.78-32.47L252.14,134l.08,23.73.11,41.88Z"/><path class="cls-3" d="M309,99,272.2,136.22l-.59-.59-5.93-6-6.92-7,4.87-4.92.11-.12h0l32.06-32.31A150.47,150.47,0,0,1,309,99Z"/><path class="cls-3" d="M134.74,122.25l-6.82,7-6.82,7-.18-.19L81.51,96.29a150.65,150.65,0,0,1,13.88-13.8l34.29,34.65Z"/><path class="cls-3" d="M205.8,346.72v-176l-19.47-.69V347.14h10.33Z"/></g></g></svg>