<svg xmlns="http://www.w3.org/2000/svg" xmlns:xlink="http://www.w3.org/1999/xlink" viewBox="0 0 56.85 169.72"><defs><mask id="mask" x="-0.01" y="0" width="56.85" height="169.74" maskUnits="userSpaceOnUse"><g transform="translate(0.09 0.04)"><g id="mask0_1565_13967" data-name="mask0 1565 13967"><rect x="0.12" y="0.03" width="54.89" height="169.6" transform="translate(-0.21 0.07) rotate(-0.14)" style="fill:#c4c4c4"/></g></g></mask><clipPath id="clip-path" transform="translate(0.09 0.04)"><rect x="0.21" y="0.07" width="56.23" height="169.5" transform="translate(-0.21 0.07) rotate(-0.14)" style="fill:none"/></clipPath><linearGradient id="New_Gradient_Swatch_copy" x1="140.12" y1="-21.55" x2="39.6" y2="107.86" gradientTransform="matrix(0.91, 0, 0, -1.05, -55.26, 128.03)" gradientUnits="userSpaceOnUse"><stop offset="0" stop-color="#6ae4ff" stop-opacity="0"/><stop offset="0.49" stop-color="#6ae4ff"/><stop offset="1" stop-color="#a39d8c" stop-opacity="0"/><stop offset="1" stop-color="#6ae4ff" stop-opacity="0"/></linearGradient><linearGradient id="New_Gradient_Swatch_copy-2" x1="17.01" y1="141.19" x2="45.23" y2="141.19" gradientTransform="matrix(1, 0, 0, 1, 0, 0)" xlink:href="#New_Gradient_Swatch_copy"/><linearGradient id="New_Gradient_Swatch" x1="38.55" y1="34.02" x2="44.72" y2="34.02" gradientTransform="translate(4.48 -18.61)" gradientUnits="userSpaceOnUse"><stop offset="0" stop-color="#daa520" stop-opacity="0"/><stop offset="0.49" stop-color="#daa520"/><stop offset="1" stop-color="#a39d8c" stop-opacity="0"/><stop offset="1" stop-color="#daa520" stop-opacity="0"/></linearGradient></defs><g id="Layer_2" data-name="Layer 2"><g id="Layer_1-2" data-name="Layer 1"><g style="mask:url(#mask)"><g style="clip-path:url(#clip-path)"><rect x="0.62" y="0.53" width="55.42" height="168.58" transform="translate(-0.12 0.11) rotate(-0.14)" style="fill:#151517;fill-opacity:0.5;stroke:url(#New_Gradient_Swatch_copy)"/></g></g><path id="Shape" d="M17.13,133.21a6.07,6.07,0,0,0,5.18,6c.28,0,.57,0,.85.06h6.69c0,.28,0,.57,0,.86s0,.7,0,1.06q0,.94.06,1.83v.09H23.16a6.05,6.05,0,0,0-.91,12,5.4,5.4,0,0,0,.91.08h16a6.05,6.05,0,0,0,1.79-11.8,5.94,5.94,0,0,0-1.79-.3H32.46V143c0-.25,0-.51-.05-.76s0-.71,0-1.07q0-1-.06-1.92h6.82a6.06,6.06,0,0,0,.5-12.08l-.5,0h-16A6.05,6.05,0,0,0,17.13,133.21Zm22,12.38a3.57,3.57,0,1,1,0,7.14h-1.6a2.65,2.65,0,0,1-.63-.07h-.05A4.8,4.8,0,0,1,34,149.73a17.56,17.56,0,0,1-1.21-4.14Zm-7.45,5.14a9.49,9.49,0,0,0,1.13,1.92l.06.08H23.16a3.65,3.65,0,0,1-.74-.08,3.57,3.57,0,0,1,.74-7.06h7.09c.06.44.14.88.23,1.32s.23,1,.37,1.47A22,22,0,0,0,31.7,150.73Zm-8.54-13.95a3.57,3.57,0,1,1,0-7.14h1.61c1.41,0,2.75,1.12,3.58,3a17.49,17.49,0,0,1,1.21,4.13Zm16-7.13a3.57,3.57,0,0,1,0,7.13H32.07c0-.07,0-.15,0-.23a19.75,19.75,0,0,0-.78-3.23c-.19-.57-.4-1.13-.64-1.68a9.12,9.12,0,0,0-1.19-2Z" transform="translate(0.09 0.04)" style="fill:#fff;stroke-width:0.25px;stroke:url(#New_Gradient_Swatch_copy-2)"/><path d="M25.2,115h6.9v1.87H25.2Zm2.56-2.18h1.35V115H27.76ZM25.2,111h6.9v1.88H25.2Z" transform="translate(0.09 0.04)" style="fill:#fff"/><path d="M29.05,105.77H30v2.13a.51.51,0,0,0,.11.34.39.39,0,0,0,.29.1h.19a.36.36,0,0,0,.29-.12.57.57,0,0,0,.11-.38,1.57,1.57,0,0,0-.11-.53,2.49,2.49,0,0,0-.3-.55,3.84,3.84,0,0,0-.41-.47h.64a4.61,4.61,0,0,1,.4.25,3,3,0,0,1,.48.42,2.28,2.28,0,0,1,.41.63,2.31,2.31,0,0,1,.16.86,2.23,2.23,0,0,1-.16.83,1.38,1.38,0,0,1-.47.61,1.31,1.31,0,0,1-.78.22h-.5a1.15,1.15,0,0,1-.94-.42,1.84,1.84,0,0,1-.33-1.16ZM27,107.13a3.15,3.15,0,0,1,.18-1.13,1.36,1.36,0,0,1,.6-.71,2.36,2.36,0,0,1,1.16-.24H32.1v1.45l-1.07.25-.18.12H28.92a.62.62,0,0,0-.45.16.78.78,0,0,0-.13.52c0,.26,0,.58,0,1s0,.78.06,1.19l-1.17.16c0-.24-.09-.53-.13-.86L27,108Q27,107.51,27,107.13Z" transform="translate(0.09 0.04)" style="fill:#fff"/><path d="M27.13,102.66l1-.22.13-.18H32.1v1.82h-5ZM27,100.24l1.67.16v.48a4,4,0,0,0,.06.66,8.72,8.72,0,0,0,.2.91l-1,.11a3.63,3.63,0,0,1-.71-1,2.59,2.59,0,0,1-.23-1Z" transform="translate(0.09 0.04)" style="fill:#fff"/><path d="M27.13,98.25l1-.2.13-.18H32.1v1.81h-5Zm-.14-2a1.43,1.43,0,0,1,.35-1,1.47,1.47,0,0,1,1-.36H32.1v1.75H29a.44.44,0,0,0-.33.11.5.5,0,0,0-.09.33,2.46,2.46,0,0,0,0,.26,1.5,1.5,0,0,0,.1.3,3.29,3.29,0,0,0,.21.43l-.93.1a3.64,3.64,0,0,1-.71-.89A2.14,2.14,0,0,1,27,96.27Zm0-3a1.46,1.46,0,0,1,.35-1,1.41,1.41,0,0,1,1-.36H32.1v1.81H29a.48.48,0,0,0-.33.09.47.47,0,0,0-.09.33,2.11,2.11,0,0,0,0,.26,1.5,1.5,0,0,0,.1.3,3.22,3.22,0,0,0,.21.41l-.93.1a3.5,3.5,0,0,1-.71-.9A2.13,2.13,0,0,1,27,93.25Z" transform="translate(0.09 0.04)" style="fill:#fff"/><path d="M27,88.35a4.06,4.06,0,0,1,.25-1.57,1.64,1.64,0,0,1,.83-.85,3.9,3.9,0,0,1,1.55-.26,3.71,3.71,0,0,1,1.52.26,1.62,1.62,0,0,1,.82.85,4,4,0,0,1,.26,1.57A4,4,0,0,1,32,89.92a1.55,1.55,0,0,1-.82.85,3.55,3.55,0,0,1-1.52.26,3.73,3.73,0,0,1-1.55-.26,1.57,1.57,0,0,1-.83-.85A4,4,0,0,1,27,88.35Zm1.27,0a.81.81,0,0,0,.11.48.58.58,0,0,0,.4.23,3.62,3.62,0,0,0,.85.07,3.58,3.58,0,0,0,.84-.07.58.58,0,0,0,.39-.23.9.9,0,0,0,.11-.48,1,1,0,0,0-.11-.48.58.58,0,0,0-.39-.23,5.14,5.14,0,0,0-1.69,0,.58.58,0,0,0-.4.23A.85.85,0,0,0,28.26,88.35Z" transform="translate(0.09 0.04)" style="fill:#fff"/><path d="M27.13,83.4l1-.22.13-.16H32.1v1.82h-5ZM27,81.15c0-1,.46-1.44,1.39-1.44H32.1v1.82H29a.35.35,0,0,0-.42.43,2.11,2.11,0,0,0,.07.54,4.27,4.27,0,0,0,.26.71l-.94.09a3.86,3.86,0,0,1-.7-1.07A2.8,2.8,0,0,1,27,81.15Z" transform="translate(0.09 0.04)" style="fill:#fff"/><path d="M27.13,77.28l3-.75.43-.07.43-.07v-.28l1.15.56v.42a.59.59,0,0,1-.12.37.66.66,0,0,1-.31.21l-4.54,1.54Zm0-3.88,4.92,1.67a5.52,5.52,0,0,1,.8.36,3,3,0,0,1,.73.6,2.21,2.21,0,0,1,.48.88,2.74,2.74,0,0,1,0,1.22l-1,.13a3.09,3.09,0,0,0-.38-1,1.58,1.58,0,0,0-.67-.55l-.75-.34a3.9,3.9,0,0,0-.6-.19l-.6-.14-3-.74Z" transform="translate(0.09 0.04)" style="fill:#fff"/><path d="M25.12,68.06a5.94,5.94,0,0,1,.15-1.49,1.34,1.34,0,0,1,.55-.8,2.09,2.09,0,0,1,1.1-.24,1.85,1.85,0,0,1,1.12.29,1.25,1.25,0,0,1,.45,1h.06a1.48,1.48,0,0,1,.53-1.14,2.21,2.21,0,0,1,1.3-.33,2,2,0,0,1,1.1.26,1.32,1.32,0,0,1,.54.79,4.84,4.84,0,0,1,.16,1.38c0,.48,0,.89,0,1.25s0,.68,0,1,0,.6,0,.91l-1.26-.15c0-.17,0-.49,0-1s0-1,0-1.68a1.6,1.6,0,0,0-.07-.55.4.4,0,0,0-.25-.27,1.54,1.54,0,0,0-.54-.08,1.65,1.65,0,0,0-.57.08.51.51,0,0,0-.28.28,1.66,1.66,0,0,0-.07.56v2.64H28V68.11a1.56,1.56,0,0,0-.06-.48.42.42,0,0,0-.23-.24,1.5,1.5,0,0,0-.49-.07,1.37,1.37,0,0,0-.47.07.39.39,0,0,0-.22.25,1.69,1.69,0,0,0-.06.51c0,.4,0,.75,0,1V70c0,.24,0,.48,0,.7l-1.26.15c0-.28-.05-.56-.06-.83s0-.56,0-.88Zm.08,1h6.9v1.83H25.2Z" transform="translate(0.09 0.04)" style="fill:#fff"/><path d="M25.1,62.63h5.29a.38.38,0,0,0,.32-.13.64.64,0,0,0,.1-.4v-.37l1.19-.2a1.28,1.28,0,0,1,.13.38,4.46,4.46,0,0,1,.07.51,4,4,0,0,1,0,.44A1.71,1.71,0,0,1,31.87,64a1.26,1.26,0,0,1-1,.42H25.1Z" transform="translate(0.09 0.04)" style="fill:#fff"/><path d="M27,58.51a4.06,4.06,0,0,1,.25-1.57,1.64,1.64,0,0,1,.83-.85,3.9,3.9,0,0,1,1.55-.26,3.71,3.71,0,0,1,1.52.26,1.62,1.62,0,0,1,.82.85,4,4,0,0,1,.26,1.57A4,4,0,0,1,32,60.08a1.55,1.55,0,0,1-.82.85,3.55,3.55,0,0,1-1.52.26,3.73,3.73,0,0,1-1.55-.26,1.57,1.57,0,0,1-.83-.85A4,4,0,0,1,27,58.51Zm1.27,0a.81.81,0,0,0,.11.48.58.58,0,0,0,.4.23,3.62,3.62,0,0,0,.85.07,3.58,3.58,0,0,0,.84-.07.58.58,0,0,0,.39-.23.9.9,0,0,0,.11-.48,1,1,0,0,0-.11-.48.58.58,0,0,0-.39-.23,5.14,5.14,0,0,0-1.69,0,.58.58,0,0,0-.4.23A.85.85,0,0,0,28.26,58.51Z" transform="translate(0.09 0.04)" style="fill:#fff"/><path d="M27,52.59c0-.19,0-.4,0-.64a5.46,5.46,0,0,1,.1-.69,2.83,2.83,0,0,1,.21-.64l1.13.18c0,.3,0,.57,0,.81v.67a1.38,1.38,0,0,0,.1.6.6.6,0,0,0,.34.32,3.24,3.24,0,0,0,1.43,0,.59.59,0,0,0,.35-.32,1.38,1.38,0,0,0,.1-.6c0-.11,0-.25,0-.42s0-.35,0-.55,0-.4,0-.59l1.14-.18a3.3,3.3,0,0,1,.29,1,6.68,6.68,0,0,1,.09,1.09A3.73,3.73,0,0,1,32,54.12a1.53,1.53,0,0,1-.83.83,4,4,0,0,1-1.52.25,3.82,3.82,0,0,1-1.54-.26,1.6,1.6,0,0,1-.83-.83A3.73,3.73,0,0,1,27,52.59Z" transform="translate(0.09 0.04)" style="fill:#fff"/><path d="M25.1,48h2.78a6.11,6.11,0,0,1,.73,0,5.25,5.25,0,0,1,.71.14l.66-.13a3.81,3.81,0,0,1,.64-.06H32.1v1.83h-7Zm3.72-.61h1.06v1.17H28.82Zm-1.69-2.77,1.67,1.17a1.31,1.31,0,0,1,.33.25,1.68,1.68,0,0,1,.21.27h0a1.28,1.28,0,0,1,.24-.27,2,2,0,0,1,.36-.25l2.12-1.35v2L29.33,48l-2.2-1.4Z" transform="translate(0.09 0.04)" style="fill:#fff"/><path d="M27,41.75c0-.2,0-.41,0-.64a5.36,5.36,0,0,1,.1-.7,2.59,2.59,0,0,1,.21-.63l1.13.18c0,.3,0,.57,0,.81v.67a1.44,1.44,0,0,0,.1.6.58.58,0,0,0,.34.31,2.89,2.89,0,0,0,1.43,0,.57.57,0,0,0,.35-.31,1.44,1.44,0,0,0,.1-.6c0-.12,0-.26,0-.42s0-.35,0-.55,0-.4,0-.6l1.14-.17a3.15,3.15,0,0,1,.29,1,6.71,6.71,0,0,1,.09,1.1A3.76,3.76,0,0,1,32,43.28a1.55,1.55,0,0,1-.83.82,4,4,0,0,1-1.52.25,3.82,3.82,0,0,1-1.54-.26,1.58,1.58,0,0,1-.83-.82A3.79,3.79,0,0,1,27,41.75Z" transform="translate(0.09 0.04)" style="fill:#fff"/><path d="M25.1,37.15h1.59a5.32,5.32,0,0,1,.81.06,4.55,4.55,0,0,1,.63.13l.13-.18H32.1V39h-7ZM27,35.28c0-1,.46-1.44,1.39-1.44H32.1v1.82H29a.47.47,0,0,0-.33.09.5.5,0,0,0-.09.34,2.09,2.09,0,0,0,.07.53,4.67,4.67,0,0,0,.26.72l-.84.18a4.09,4.09,0,0,1-.77-1.12A2.61,2.61,0,0,1,27,35.28Z" transform="translate(0.09 0.04)" style="fill:#fff"/><path d="M29.05,28.73H30v2.12a.51.51,0,0,0,.11.34.4.4,0,0,0,.29.11h.19a.36.36,0,0,0,.29-.13.56.56,0,0,0,.11-.37,1.48,1.48,0,0,0-.11-.53,2.11,2.11,0,0,0-.3-.55,3.21,3.21,0,0,0-.41-.47h.64a2.78,2.78,0,0,1,.4.24,3,3,0,0,1,.48.42,2.2,2.2,0,0,1,.41.64,2.24,2.24,0,0,1,.16.86,2.27,2.27,0,0,1-.16.83,1.41,1.41,0,0,1-.47.6,1.31,1.31,0,0,1-.78.23h-.5a1.15,1.15,0,0,1-.94-.43,1.83,1.83,0,0,1-.33-1.15ZM27,30.09A3.17,3.17,0,0,1,27.17,29a1.3,1.3,0,0,1,.6-.7A2.36,2.36,0,0,1,28.93,28H32.1v1.45L31,29.71l-.18.12H28.92a.58.58,0,0,0-.45.15.79.79,0,0,0-.13.53c0,.26,0,.58,0,1s0,.77.06,1.18l-1.17.17c0-.25-.09-.54-.13-.87L27,31Q27,30.45,27,30.09Z" transform="translate(0.09 0.04)" style="fill:#fff"/><path d="M24.89,25.71a.48.48,0,0,1,.54-.54H26a.48.48,0,0,1,.54.54v.78A.47.47,0,0,1,26,27h-.52a.47.47,0,0,1-.54-.53Zm2.24-.52h5V27h-5Z" transform="translate(0.09 0.04)" style="fill:#fff"/><path d="M27.13,22.69l1-.22.13-.16H32.1v1.82h-5ZM27,20.44c0-1,.46-1.44,1.39-1.44H32.1v1.82H29a.47.47,0,0,0-.33.09.5.5,0,0,0-.09.34,2.09,2.09,0,0,0,.07.53,4.67,4.67,0,0,0,.26.72l-.94.09a4.18,4.18,0,0,1-.7-1.07A2.87,2.87,0,0,1,27,20.44Z" transform="translate(0.09 0.04)" style="fill:#fff"/><path d="M37.2,111.44h1.43v5.87H37.2Zm0,2h6.9v1.88H37.2Z" transform="translate(0.09 0.04)" style="fill:#fff"/><path d="M39,109.22a3.22,3.22,0,0,1,.44-1.91,1.53,1.53,0,0,1,1.3-.57,1.22,1.22,0,0,1,1,.38,2.25,2.25,0,0,1,.32,1.38v2.72h-.91V109a.67.67,0,0,0-.1-.43.55.55,0,0,0-.36-.1c-.2,0-.33.06-.39.16a1,1,0,0,0-.1.52,1.14,1.14,0,0,0,.08.54.5.5,0,0,0,.36.25,3.3,3.3,0,0,0,.81.07,3,3,0,0,0,.83-.08.66.66,0,0,0,.41-.31,1.37,1.37,0,0,0,.12-.64q0-.31,0-.84c0-.35,0-.72-.08-1.11l1.1-.17a3.71,3.71,0,0,1,.25.71,6.85,6.85,0,0,1,.13.79c0,.28,0,.55,0,.82a3.93,3.93,0,0,1-.28,1.6,1.74,1.74,0,0,1-.86.87,3.37,3.37,0,0,1-1.44.26,3.77,3.77,0,0,1-1.56-.27,1.61,1.61,0,0,1-.84-.86A4.06,4.06,0,0,1,39,109.22Z" transform="translate(0.09 0.04)" style="fill:#fff"/><path d="M39,103.54c0-.19,0-.4,0-.64a5.9,5.9,0,0,1,.1-.7,2.91,2.91,0,0,1,.21-.63l1.13.18c0,.3,0,.57,0,.81v.67a1.38,1.38,0,0,0,.1.6.55.55,0,0,0,.34.31,2.89,2.89,0,0,0,1.43,0,.55.55,0,0,0,.35-.31,1.38,1.38,0,0,0,.1-.6c0-.11,0-.25,0-.42s0-.35,0-.55,0-.4,0-.6l1.14-.17a3.3,3.3,0,0,1,.29,1,6.68,6.68,0,0,1,.09,1.09,3.73,3.73,0,0,1-.26,1.51,1.52,1.52,0,0,1-.83.82,3.79,3.79,0,0,1-1.52.25,3.83,3.83,0,0,1-1.54-.25,1.6,1.6,0,0,1-.83-.83A3.76,3.76,0,0,1,39,103.54Z" transform="translate(0.09 0.04)" style="fill:#fff"/><path d="M37.1,98.94h1.59a5.32,5.32,0,0,1,.81.06c.26,0,.47.09.63.13l.13-.18H44.1v1.82h-7ZM39,97.07c0-1,.46-1.44,1.39-1.44H44.1v1.82H41a.35.35,0,0,0-.42.43,2.11,2.11,0,0,0,.07.54,4.27,4.27,0,0,0,.26.71l-.84.18a4,4,0,0,1-.77-1.11A2.62,2.62,0,0,1,39,97.07Z" transform="translate(0.09 0.04)" style="fill:#fff"/><path d="M39.13,93.2l1-.22.13-.16H44.1v1.82h-5ZM39,91c0-1,.46-1.44,1.39-1.44H44.1v1.82H41a.35.35,0,0,0-.42.43,2.11,2.11,0,0,0,.07.54,4.27,4.27,0,0,0,.26.71l-.94.09a3.86,3.86,0,0,1-.7-1.07A2.8,2.8,0,0,1,39,91Z" transform="translate(0.09 0.04)" style="fill:#fff"/><path d="M39,86a4.06,4.06,0,0,1,.25-1.57,1.64,1.64,0,0,1,.83-.85,3.9,3.9,0,0,1,1.55-.26,3.71,3.71,0,0,1,1.52.26,1.62,1.62,0,0,1,.82.85A4,4,0,0,1,44.22,86,4,4,0,0,1,44,87.59a1.55,1.55,0,0,1-.82.85,3.55,3.55,0,0,1-1.52.26,3.73,3.73,0,0,1-1.55-.26,1.57,1.57,0,0,1-.83-.85A4,4,0,0,1,39,86Zm1.27,0a.81.81,0,0,0,.11.48.58.58,0,0,0,.4.23,3.62,3.62,0,0,0,.85.07,3.58,3.58,0,0,0,.84-.07.58.58,0,0,0,.39-.23A.9.9,0,0,0,43,86a1,1,0,0,0-.11-.48.58.58,0,0,0-.39-.23,5.14,5.14,0,0,0-1.69,0,.58.58,0,0,0-.4.23A.85.85,0,0,0,40.26,86Z" transform="translate(0.09 0.04)" style="fill:#fff"/><path d="M37.1,80.69h5.29a.38.38,0,0,0,.32-.13.64.64,0,0,0,.1-.4v-.37l1.19-.2a1.28,1.28,0,0,1,.13.38,4.46,4.46,0,0,1,.07.51,4,4,0,0,1,0,.44,1.71,1.71,0,0,1-.36,1.16,1.26,1.26,0,0,1-1,.42H37.1Z" transform="translate(0.09 0.04)" style="fill:#fff"/><path d="M39,76.57A4.06,4.06,0,0,1,39.24,75a1.64,1.64,0,0,1,.83-.85,3.9,3.9,0,0,1,1.55-.26,3.71,3.71,0,0,1,1.52.26A1.62,1.62,0,0,1,44,75a4,4,0,0,1,.26,1.57A4,4,0,0,1,44,78.14a1.55,1.55,0,0,1-.82.85,3.55,3.55,0,0,1-1.52.26A3.73,3.73,0,0,1,40.07,79a1.57,1.57,0,0,1-.83-.85A4,4,0,0,1,39,76.57Zm1.27,0a.81.81,0,0,0,.11.48.58.58,0,0,0,.4.23,3.62,3.62,0,0,0,.85.07,3.58,3.58,0,0,0,.84-.07.58.58,0,0,0,.39-.23.9.9,0,0,0,.11-.48,1,1,0,0,0-.11-.48.58.58,0,0,0-.39-.23,5.14,5.14,0,0,0-1.69,0,.58.58,0,0,0-.4.23A.85.85,0,0,0,40.26,76.57Z" transform="translate(0.09 0.04)" style="fill:#fff"/><path d="M41.85,72.28l.15-.86a.31.31,0,0,0,.19.18.28.28,0,0,0,.28,0,.39.39,0,0,0,.16-.31l.16-1.83a1.71,1.71,0,0,1,.44-1.17,1.9,1.9,0,0,1,2.11-.06,1.45,1.45,0,0,1,.49.88A8.31,8.31,0,0,1,46,70.67a10.31,10.31,0,0,1-.08,1.39,2.56,2.56,0,0,1-.25.83.89.89,0,0,1-.44.42,1.68,1.68,0,0,1-.67.11,1.13,1.13,0,0,1-.54-.11,1,1,0,0,1-.41-.42,3.67,3.67,0,0,1-.33-.84L43,71.24l.23-.62.22.37c.13.18.23.33.31.43a.8.8,0,0,0,.2.23.47.47,0,0,0,.28.07.33.33,0,0,0,.27-.09.47.47,0,0,0,.13-.31,3.35,3.35,0,0,0,0-.62,3.85,3.85,0,0,0,0-.66.57.57,0,0,0-.12-.33.31.31,0,0,0-.24-.1.26.26,0,0,0-.23.09A.53.53,0,0,0,44,70c0,.12,0,.27-.06.46l-.13,1.45a1.32,1.32,0,0,1-.22.66.88.88,0,0,1-.44.33,1,1,0,0,1-.51.05.94.94,0,0,1-.47-.2A.87.87,0,0,1,41.85,72.28ZM39,70.74a5.14,5.14,0,0,1,.16-1.45,1.32,1.32,0,0,1,.5-.77,1.55,1.55,0,0,1,.92-.24,1.63,1.63,0,0,1,.91.23,1.35,1.35,0,0,1,.5.78,6.65,6.65,0,0,1,0,2.9,1.32,1.32,0,0,1-.5.78,1.56,1.56,0,0,1-.91.25,1.59,1.59,0,0,1-.92-.25,1.38,1.38,0,0,1-.5-.79A5.15,5.15,0,0,1,39,70.74Zm1,0a1.23,1.23,0,0,0,.11.62.5.5,0,0,0,.43.17.46.46,0,0,0,.42-.17,1.11,1.11,0,0,0,.12-.62,1.13,1.13,0,0,0-.12-.62.48.48,0,0,0-.42-.15.52.52,0,0,0-.43.15A1.26,1.26,0,0,0,40,70.74Zm-.9-3,.7.08L40,69.16l-.91.37Z" transform="translate(0.09 0.04)" style="fill:#fff"/><path d="M39.13,65.68l3-.75.43-.07L43,64.8v-.29l1.15.56v.42a.59.59,0,0,1-.12.37.66.66,0,0,1-.31.21l-4.54,1.54Zm0-3.88,4.92,1.67a4.7,4.7,0,0,1,.8.37,2.75,2.75,0,0,1,.73.59,2.19,2.19,0,0,1,.48.89,2.69,2.69,0,0,1,0,1.21l-1,.13a3.09,3.09,0,0,0-.38-1,1.58,1.58,0,0,0-.67-.55l-.75-.33a3,3,0,0,0-.6-.2c-.23-.06-.44-.1-.6-.13l-3-.75Z" transform="translate(0.09 0.04)" style="fill:#fff"/><path d="M49.76,27.43a1.16,1.16,0,0,1,.07-.37,1.21,1.21,0,0,1,.2-.3,1,1,0,0,1,.3-.21,1.07,1.07,0,0,1,.76,0,1,1,0,0,1,.3.21,1.21,1.21,0,0,1,.2.3,1.16,1.16,0,0,1,.07.37,1.06,1.06,0,0,1-.07.37,1.1,1.1,0,0,1-.2.31,1.21,1.21,0,0,1-.3.2,1.07,1.07,0,0,1-.76,0,1.21,1.21,0,0,1-.3-.2,1.1,1.1,0,0,1-.2-.31A1.06,1.06,0,0,1,49.76,27.43Zm.16,0a.81.81,0,0,0,.06.31.79.79,0,0,0,.17.25.74.74,0,0,0,.25.17.83.83,0,0,0,.62,0,.74.74,0,0,0,.25-.17,1,1,0,0,0,.17-.25.81.81,0,0,0,.06-.31.73.73,0,0,0-.06-.3.81.81,0,0,0-.42-.42.83.83,0,0,0-.62,0,.74.74,0,0,0-.25.17.62.62,0,0,0-.17.25A.73.73,0,0,0,49.92,27.43Zm.22,0c0-.08,0-.15,0-.2l0-.16.17,0v.33a.32.32,0,0,0,0,.16.2.2,0,0,0,.11.09l.21,0,.22,0a.2.2,0,0,0,.11-.09.32.32,0,0,0,0-.16v-.2a.86.86,0,0,0,0-.16l.17,0a.85.85,0,0,1,0,.17c0,.05,0,.12,0,.21a.61.61,0,0,1-.06.3.33.33,0,0,1-.18.17,1,1,0,0,1-.33.05,1,1,0,0,1-.33-.05.31.31,0,0,1-.17-.17A.61.61,0,0,1,50.14,27.42Z" transform="translate(0.09 0.04)" style="fill:#fff"/><path d="M50.56,25.47v-.36l.83.76v.37Zm.83-.38h.23v1.15h-.23Zm-1.07,0h.24v1.12h-.24Z" transform="translate(0.09 0.04)" style="fill:#fff"/><path d="M50.29,24.22a.83.83,0,0,1,.07-.38.4.4,0,0,1,.22-.2,1.07,1.07,0,0,1,.39-.06,1.09,1.09,0,0,1,.4.06.43.43,0,0,1,.22.2,1,1,0,0,1,.07.38.9.9,0,0,1-.07.37.41.41,0,0,1-.22.21,1.09,1.09,0,0,1-.4.06,1.07,1.07,0,0,1-.39-.06.38.38,0,0,1-.22-.21A.76.76,0,0,1,50.29,24.22Zm.25,0a.42.42,0,0,0,0,.18.22.22,0,0,0,.14.1.88.88,0,0,0,.26,0,.91.91,0,0,0,.27,0,.19.19,0,0,0,.13-.1.3.3,0,0,0,0-.18.36.36,0,0,0,0-.19.22.22,0,0,0-.13-.09.91.91,0,0,0-.27,0,.88.88,0,0,0-.26,0,.24.24,0,0,0-.14.09A.5.5,0,0,0,50.54,24.22Z" transform="translate(0.09 0.04)" style="fill:#fff"/><path d="M50.29,22.69a.81.81,0,0,1,.07-.38.4.4,0,0,1,.22-.2,1.07,1.07,0,0,1,.39-.06,1.09,1.09,0,0,1,.4.06.43.43,0,0,1,.22.2,1,1,0,0,1,.07.38.94.94,0,0,1-.07.37.41.41,0,0,1-.22.21,1.09,1.09,0,0,1-.4.06,1.07,1.07,0,0,1-.39-.06.38.38,0,0,1-.22-.21A.79.79,0,0,1,50.29,22.69Zm.25,0a.42.42,0,0,0,0,.18.22.22,0,0,0,.14.1A.88.88,0,0,0,51,23a.91.91,0,0,0,.27,0,.19.19,0,0,0,.13-.1.3.3,0,0,0,0-.18.36.36,0,0,0,0-.19.18.18,0,0,0-.13-.09.91.91,0,0,0-.27,0,.88.88,0,0,0-.26,0,.2.2,0,0,0-.14.09A.5.5,0,0,0,50.54,22.69Z" transform="translate(0.09 0.04)" style="fill:#fff"/><path d="M50.84,21h.22v.8h-.22Z" transform="translate(0.09 0.04)" style="fill:#fff"/><path d="M49.77,20.29h.66l.15,0,0,0h1v.32H49.77Zm.52-.53a.32.32,0,0,1,.36-.36h1v.32h-.87a.21.21,0,0,0-.15,0,.17.17,0,0,0,0,.12.79.79,0,0,0,0,.2,2.05,2.05,0,0,0,.13.25l-.18,0a1.25,1.25,0,0,1-.19-.3A.62.62,0,0,1,50.29,19.76Z" transform="translate(0.09 0.04)" style="fill:#fff"/><path d="M50.82,18.05H51v.6a.16.16,0,0,0,0,.11.21.21,0,0,0,.11,0h.07a.14.14,0,0,0,.12-.05s0-.07,0-.13a1,1,0,0,0,0-.16.7.7,0,0,0-.09-.17.64.64,0,0,0-.13-.15h.17l.09.07.11.12a.89.89,0,0,1,.08.17.46.46,0,0,1,0,.21.65.65,0,0,1,0,.21.29.29,0,0,1-.13.14.3.3,0,0,1-.19.05h-.14a.3.3,0,0,1-.24-.1.39.39,0,0,1-.09-.28Zm-.53.34a1,1,0,0,1,0-.26.36.36,0,0,1,.14-.16.54.54,0,0,1,.27-.06h.88v.26l-.28,0,0,0h-.56a.21.21,0,0,0-.15,0,.29.29,0,0,0-.05.19c0,.06,0,.15,0,.25s0,.2,0,.3l-.22,0q0-.09,0-.21c0-.07,0-.15,0-.23S50.29,18.46,50.29,18.39Z" transform="translate(0.09 0.04)" style="fill:#fff"/><path d="M50.32,17.32l.26-.05,0,0h1v.32h-1.3Zm0-.64.3,0v.09a.76.76,0,0,0,0,.21l.11.26-.19,0a1,1,0,0,1-.18-.28.57.57,0,0,1-.07-.27Z" transform="translate(0.09 0.04)" style="fill:#fff"/><path d="M50.32,16.21l.26,0,0,0h1v.32h-1.3Zm0-.53a.34.34,0,0,1,.09-.26.37.37,0,0,1,.27-.09h1v.31h-.87a.21.21,0,0,0-.15,0,.21.21,0,0,0,0,.12.43.43,0,0,0,0,.11l.05.12.1.15-.19,0a1.07,1.07,0,0,1-.19-.26A.58.58,0,0,1,50.29,15.68Zm0-.83a.36.36,0,0,1,.09-.26.37.37,0,0,1,.27-.09h1v.31h-.87a.29.29,0,0,0-.14,0,.17.17,0,0,0,0,.13.36.36,0,0,0,0,.11l.05.11.1.16-.19,0a1.31,1.31,0,0,1-.19-.26A.66.66,0,0,1,50.29,14.85Z" transform="translate(0.09 0.04)" style="fill:#fff"/><path d="M50.29,13.56a.83.83,0,0,1,.07-.38.4.4,0,0,1,.22-.2,1.07,1.07,0,0,1,.39-.06,1.09,1.09,0,0,1,.4.06.43.43,0,0,1,.22.2,1,1,0,0,1,.07.38.94.94,0,0,1-.07.37.41.41,0,0,1-.22.21,1.09,1.09,0,0,1-.4.06,1.07,1.07,0,0,1-.39-.06.38.38,0,0,1-.22-.21A.79.79,0,0,1,50.29,13.56Zm.25,0a.42.42,0,0,0,0,.18.22.22,0,0,0,.14.1.88.88,0,0,0,.26,0,.91.91,0,0,0,.27,0,.19.19,0,0,0,.13-.1.3.3,0,0,0,0-.18.36.36,0,0,0,0-.19.18.18,0,0,0-.13-.09.91.91,0,0,0-.27,0,.88.88,0,0,0-.26,0,.2.2,0,0,0-.14.09A.5.5,0,0,0,50.54,13.56Z" transform="translate(0.09 0.04)" style="fill:#fff"/><path d="M50.32,12.35l.26,0,0,0h1v.31h-1.3Zm0-.59a.32.32,0,0,1,.36-.36h1v.32h-.87a.21.21,0,0,0-.15,0,.17.17,0,0,0,0,.12.49.49,0,0,0,0,.2,1.8,1.8,0,0,0,.12.25h-.19a1,1,0,0,1-.18-.29A.62.62,0,0,1,50.29,11.76Z" transform="translate(0.09 0.04)" style="fill:#fff"/><path d="M50.32,10.86l.9-.29.09,0h.09v-.07l.22.1v.08a.14.14,0,0,1,0,.07.09.09,0,0,1-.06,0l-1.22.45Zm0-1,1.34.49.18.08a1.09,1.09,0,0,1,.17.13.76.76,0,0,1,.12.19,1,1,0,0,1,0,.25L52,11a.65.65,0,0,0-.12-.25.72.72,0,0,0-.2-.14l-.17-.07-.13,0-.13,0-.9-.29Z" transform="translate(0.09 0.04)" style="fill:#fff"/><path d="M51.26,9.5a.14.14,0,0,1,0-.09.12.12,0,0,1,.09,0h.13a.13.13,0,0,1,.1,0,.14.14,0,0,1,0,.09v.09a.2.2,0,0,1,0,.09l-.1,0h-.13l-.09,0a.2.2,0,0,1,0-.09Z" transform="translate(0.09 0.04)" style="fill:#fff"/><path d="M50.29,8.47a.76.76,0,0,1,0-.15,1,1,0,0,1,0-.16.83.83,0,0,1,0-.15l.2,0v.19a1.09,1.09,0,0,0,0,.17.56.56,0,0,0,0,.21.22.22,0,0,0,.13.12.81.81,0,0,0,.25,0,.88.88,0,0,0,.26,0,.2.2,0,0,0,.12-.12.41.41,0,0,0,0-.21v-.1c0-.05,0-.09,0-.14s0-.1,0-.15l.2,0a.77.77,0,0,1,.06.23,1.06,1.06,0,0,1,0,.25,1,1,0,0,1-.06.37.43.43,0,0,1-.22.2.9.9,0,0,1-.4.07,1.06,1.06,0,0,1-.4-.07.38.38,0,0,1-.21-.2A.79.79,0,0,1,50.29,8.47Z" transform="translate(0.09 0.04)" style="fill:#fff"/><path d="M50.29,7.16a.81.81,0,0,1,.07-.38.4.4,0,0,1,.22-.2A1.07,1.07,0,0,1,51,6.52a1.09,1.09,0,0,1,.4.06.43.43,0,0,1,.22.2,1,1,0,0,1,.07.38.94.94,0,0,1-.07.37.41.41,0,0,1-.22.21,1.09,1.09,0,0,1-.4.06,1.07,1.07,0,0,1-.39-.06.38.38,0,0,1-.22-.21A.79.79,0,0,1,50.29,7.16Zm.25,0a.42.42,0,0,0,0,.18.22.22,0,0,0,.14.1.88.88,0,0,0,.26,0,.91.91,0,0,0,.27,0,.19.19,0,0,0,.13-.1.3.3,0,0,0,0-.18.36.36,0,0,0,0-.19.18.18,0,0,0-.13-.09.91.91,0,0,0-.27,0,.88.88,0,0,0-.26,0,.2.2,0,0,0-.14.09A.5.5,0,0,0,50.54,7.16Z" transform="translate(0.09 0.04)" style="fill:#fff"/><path d="M50.32,6l.26,0,0,0h1v.31h-1.3Zm0-.53a.34.34,0,0,1,.09-.26.37.37,0,0,1,.27-.09h1v.3h-.87a.21.21,0,0,0-.15,0,.19.19,0,0,0,0,.12.43.43,0,0,0,0,.11l.05.11.1.16-.19,0a1.07,1.07,0,0,1-.19-.26A.58.58,0,0,1,50.29,5.43Zm0-.83a.34.34,0,0,1,.09-.26.37.37,0,0,1,.27-.1h1v.32h-.87a.21.21,0,0,0-.14,0,.17.17,0,0,0,0,.13.43.43,0,0,0,0,.11l.05.11.1.16h-.19a1.07,1.07,0,0,1-.19-.26A.58.58,0,0,1,50.29,4.6Z" transform="translate(0.09 0.04)" style="fill:#fff"/><path d="M43.05,23.3a4.53,4.53,0,0,1,.11-1.11,1.34,1.34,0,0,1,.43-.73,1.3,1.3,0,0,1,.89-.26,2.22,2.22,0,0,1,.59.07,1.55,1.55,0,0,1,.55.27,5.09,5.09,0,0,1,.7.59l1.46,1.47c0-.13-.05-.27-.07-.41s0-.27,0-.42V21h1.38v4.44h-.83a1.29,1.29,0,0,1-.35-.05,1.19,1.19,0,0,1-.3-.18L46.23,23.9a9.94,9.94,0,0,0-.91-.78,1.12,1.12,0,0,0-.65-.27c-.09,0-.15,0-.18.07a.34.34,0,0,0-.08.21,1.89,1.89,0,0,0,0,.37v.58c0,.17,0,.37,0,.57s0,.45,0,.71l-1.19.07c-.05-.3-.1-.56-.13-.8s0-.47,0-.68S43.05,23.51,43.05,23.3Z" transform="translate(0.09 0.04)" style="fill:#fff"/><path d="M43,18a3.06,3.06,0,0,1,.29-1.44,1.63,1.63,0,0,1,1-.76,7.14,7.14,0,0,1,3.67,0,1.63,1.63,0,0,1,1,.76A3.06,3.06,0,0,1,49.2,18a3,3,0,0,1-.29,1.42,1.59,1.59,0,0,1-1,.76,7.44,7.44,0,0,1-3.67,0,1.59,1.59,0,0,1-1-.76A3,3,0,0,1,43,18Zm1.22,0a.9.9,0,0,0,.07.4.51.51,0,0,0,.27.25,1.71,1.71,0,0,0,.56.13q.38,0,1,0c.4,0,.72,0,1,0a1.71,1.71,0,0,0,.56-.13.51.51,0,0,0,.27-.25A.9.9,0,0,0,48,18a1,1,0,0,0-.07-.41.57.57,0,0,0-.27-.26,2,2,0,0,0-.56-.13c-.25,0-.57,0-1,0s-.71,0-1,0a2,2,0,0,0-.56.13.57.57,0,0,0-.27.26A1,1,0,0,0,44.25,18Z" transform="translate(0.09 0.04)" style="fill:#fff"/><path d="M43.05,12.67a4.53,4.53,0,0,1,.11-1.11,1.22,1.22,0,0,1,1.32-1,2.73,2.73,0,0,1,.59.07,2,2,0,0,1,.55.27,6.16,6.16,0,0,1,.7.6L47.78,13c0-.14-.05-.27-.07-.41s0-.27,0-.42V10.41h1.38v4.43h-.83a1,1,0,0,1-.35-.05.92.92,0,0,1-.3-.17l-1.37-1.35a9.94,9.94,0,0,0-.91-.78,1.23,1.23,0,0,0-.65-.28.22.22,0,0,0-.18.07.4.4,0,0,0-.08.21,2.06,2.06,0,0,0,0,.38v.57c0,.18,0,.37,0,.58s0,.44,0,.71l-1.19.06c-.05-.29-.1-.55-.13-.79s0-.47,0-.69S43.05,12.88,43.05,12.67Z" transform="translate(0.09 0.04)" style="fill:#fff"/><path d="M43.05,7.59a4.53,4.53,0,0,1,.11-1.11,1.34,1.34,0,0,1,.43-.73,1.3,1.3,0,0,1,.89-.27,2.73,2.73,0,0,1,.59.07,2,2,0,0,1,.55.27,6.16,6.16,0,0,1,.7.6l1.46,1.47c0-.14-.05-.27-.07-.41s0-.27,0-.42V5.33h1.38V9.77h-.83a1,1,0,0,1-.35-.06.92.92,0,0,1-.3-.17L46.23,8.19a9.94,9.94,0,0,0-.91-.78,1.12,1.12,0,0,0-.65-.27.22.22,0,0,0-.18.06.4.4,0,0,0-.08.21,2.06,2.06,0,0,0,0,.38v.57c0,.18,0,.37,0,.58s0,.44,0,.71l-1.19.06c-.05-.29-.1-.55-.13-.79s0-.47,0-.68S43.05,7.8,43.05,7.59Z" transform="translate(0.09 0.04)" style="fill:#fff"/><path d="M43.05,23.3a4.53,4.53,0,0,1,.11-1.11,1.34,1.34,0,0,1,.43-.73,1.3,1.3,0,0,1,.89-.26,2.22,2.22,0,0,1,.59.07,1.55,1.55,0,0,1,.55.27,5.09,5.09,0,0,1,.7.59l1.46,1.47c0-.13-.05-.27-.07-.41s0-.27,0-.42V21h1.38v4.44h-.83a1.29,1.29,0,0,1-.35-.05,1.19,1.19,0,0,1-.3-.18L46.23,23.9a9.94,9.94,0,0,0-.91-.78,1.12,1.12,0,0,0-.65-.27c-.09,0-.15,0-.18.07a.34.34,0,0,0-.08.21,1.89,1.89,0,0,0,0,.37v.58c0,.17,0,.37,0,.57s0,.45,0,.71l-1.19.07c-.05-.3-.1-.56-.13-.8s0-.47,0-.68S43.05,23.51,43.05,23.3Z" transform="translate(0.09 0.04)" style="fill:none;stroke-width:0.25px;stroke:url(#New_Gradient_Swatch)"/><path d="M43,18a3.06,3.06,0,0,1,.29-1.44,1.63,1.63,0,0,1,1-.76,7.14,7.14,0,0,1,3.67,0,1.63,1.63,0,0,1,1,.76A3.06,3.06,0,0,1,49.2,18a3,3,0,0,1-.29,1.42,1.59,1.59,0,0,1-1,.76,7.44,7.44,0,0,1-3.67,0,1.59,1.59,0,0,1-1-.76A3,3,0,0,1,43,18Zm1.22,0a.9.9,0,0,0,.07.4.51.51,0,0,0,.27.25,1.71,1.71,0,0,0,.56.13q.38,0,1,0c.4,0,.72,0,1,0a1.71,1.71,0,0,0,.56-.13.51.51,0,0,0,.27-.25A.9.9,0,0,0,48,18a1,1,0,0,0-.07-.41.57.57,0,0,0-.27-.26,2,2,0,0,0-.56-.13c-.25,0-.57,0-1,0s-.71,0-1,0a2,2,0,0,0-.56.13.57.57,0,0,0-.27.26A1,1,0,0,0,44.25,18Z" transform="translate(0.09 0.04)" style="fill:none;stroke-width:0.25px;stroke:url(#New_Gradient_Swatch)"/><path d="M43.05,12.67a4.53,4.53,0,0,1,.11-1.11,1.22,1.22,0,0,1,1.32-1,2.73,2.73,0,0,1,.59.07,2,2,0,0,1,.55.27,6.16,6.16,0,0,1,.7.6L47.78,13c0-.14-.05-.27-.07-.41s0-.27,0-.42V10.41h1.38v4.43h-.83a1,1,0,0,1-.35-.05.92.92,0,0,1-.3-.17l-1.37-1.35a9.94,9.94,0,0,0-.91-.78,1.23,1.23,0,0,0-.65-.28.22.22,0,0,0-.18.07.4.4,0,0,0-.08.21,2.06,2.06,0,0,0,0,.38v.57c0,.18,0,.37,0,.58s0,.44,0,.71l-1.19.06c-.05-.29-.1-.55-.13-.79s0-.47,0-.69S43.05,12.88,43.05,12.67Z" transform="translate(0.09 0.04)" style="fill:none;stroke-width:0.25px;stroke:url(#New_Gradient_Swatch)"/><path d="M43.05,7.59a4.53,4.53,0,0,1,.11-1.11,1.34,1.34,0,0,1,.43-.73,1.3,1.3,0,0,1,.89-.27,2.73,2.73,0,0,1,.59.07,2,2,0,0,1,.55.27,6.16,6.16,0,0,1,.7.6l1.46,1.47c0-.14-.05-.27-.07-.41s0-.27,0-.42V5.33h1.38V9.77h-.83a1,1,0,0,1-.35-.06.92.92,0,0,1-.3-.17L46.23,8.19a9.94,9.94,0,0,0-.91-.78,1.12,1.12,0,0,0-.65-.27.22.22,0,0,0-.18.06.4.4,0,0,0-.08.21,2.06,2.06,0,0,0,0,.38v.57c0,.18,0,.37,0,.58s0,.44,0,.71l-1.19.06c-.05-.29-.1-.55-.13-.79s0-.47,0-.68S43.05,7.8,43.05,7.59Z" transform="translate(0.09 0.04)" style="fill:none;stroke-width:0.25px;stroke:url(#New_Gradient_Swatch)"/><path d="M15,114.31a5.31,5.31,0,0,1,.14-1.35,1.21,1.21,0,0,1,.49-.72,2,2,0,0,1,1-.21,1.69,1.69,0,0,1,1,.25,1.12,1.12,0,0,1,.4.86h.06a1.32,1.32,0,0,1,.48-1,2.05,2.05,0,0,1,1.16-.29,1.87,1.87,0,0,1,1,.23,1.25,1.25,0,0,1,.49.71,4.74,4.74,0,0,1,.14,1.25c0,.43,0,.8,0,1.12s0,.62,0,.88,0,.55,0,.83l-1.14-.14c0-.15,0-.45,0-.88s0-.93,0-1.51a1.66,1.66,0,0,0-.06-.5.42.42,0,0,0-.23-.24,1.55,1.55,0,0,0-.49-.07,1.36,1.36,0,0,0-.51.08.4.4,0,0,0-.25.24,1.39,1.39,0,0,0-.07.51v2.38h-1v-2.36a1.23,1.23,0,0,0-.05-.43.38.38,0,0,0-.21-.22,1.25,1.25,0,0,0-.44-.06,1.1,1.1,0,0,0-.42.06.36.36,0,0,0-.2.23,1.38,1.38,0,0,0-.06.46v1.68q0,.33,0,.63l-1.13.14c0-.26,0-.51-.05-.75s0-.5,0-.79S15,114.68,15,114.31Zm.08.88h6.22v1.65H15.05Z" transform="translate(0.09 0.04)" style="fill:#fff"/><path d="M16.79,109.44h2.83a.37.37,0,0,0,.3-.09A.5.5,0,0,0,20,109a1.72,1.72,0,0,0-.06-.44,3,3,0,0,0-.24-.58l.84-.11a3.19,3.19,0,0,1,.63.93,2.23,2.23,0,0,1,.21,1c0,.87-.42,1.31-1.25,1.31H16.79Zm0-2.92h4.48v1.29l-.91.2-.1.16H16.79Z" transform="translate(0.09 0.04)" style="fill:#fff"/><path d="M14.77,104.4a.42.42,0,0,1,.48-.48h.47a.43.43,0,0,1,.49.48v.7a.43.43,0,0,1-.49.48h-.47a.42.42,0,0,1-.48-.48Zm2-.47h4.48v1.63H16.79Z" transform="translate(0.09 0.04)" style="fill:#fff"/><path d="M15,101.34h4.76a.33.33,0,0,0,.29-.12.62.62,0,0,0,.09-.36v-.33l1.07-.18a.94.94,0,0,1,.12.34c0,.15.05.3.07.46s0,.29,0,.39a1.59,1.59,0,0,1-.32,1,1.15,1.15,0,0,1-.91.38H15Z" transform="translate(0.09 0.04)" style="fill:#fff"/><path d="M16.79,96.79h1v3.56h-1l0-.86ZM15.58,98h4.14a.39.39,0,0,0,.29-.1.5.5,0,0,0,.09-.33V97l1.07-.18a2.13,2.13,0,0,1,.12.44c0,.17.05.34.07.52s0,.32,0,.45a1.41,1.41,0,0,1-.33,1,1.14,1.14,0,0,1-.91.37H15.58Z" transform="translate(0.09 0.04)" style="fill:#fff"/><path d="M16.79,87.22l4.06,1a.48.48,0,0,1,.3.19.55.55,0,0,1,.12.35v1.18a.57.57,0,0,1-.14.38.53.53,0,0,1-.35.19l-2.26.37-.39,0-.38,0v.12l.38,0,.39.05,2.26.36a.53.53,0,0,1,.35.19.6.6,0,0,1,.14.39v1.16a.55.55,0,0,1-.12.35.41.41,0,0,1-.3.19l-4.06,1V93.16l2.69-.45.38,0,.39,0v-.11l-.39-.05-.38,0-2.22-.36a.52.52,0,0,1-.34-.18.57.57,0,0,1-.13-.38v-1a.54.54,0,0,1,.13-.37.53.53,0,0,1,.35-.19l2.21-.35.38-.06.39,0V89.4l-.39,0a2.5,2.5,0,0,1-.38-.06l-2.69-.45Z" transform="translate(0.09 0.04)" style="fill:#fff"/><path d="M14.77,85.46a.42.42,0,0,1,.48-.48h.47a.43.43,0,0,1,.49.48v.7a.43.43,0,0,1-.49.48h-.47a.42.42,0,0,1-.48-.48Zm2-.47h4.48v1.63H16.79Z" transform="translate(0.09 0.04)" style="fill:#fff"/><path d="M16.79,80.8h1v3.57h-1l0-.87ZM15.58,82h4.14a.35.35,0,0,0,.29-.1.5.5,0,0,0,.09-.33V81l1.07-.18a2.13,2.13,0,0,1,.12.44c0,.17.05.34.07.52s0,.32,0,.45a1.45,1.45,0,0,1-.33,1,1.17,1.17,0,0,1-.91.36H15.58Z" transform="translate(0.09 0.04)" style="fill:#fff"/><path d="M15,78.56h1.43a4.4,4.4,0,0,1,.73.06,4.46,4.46,0,0,1,.57.11l.11-.16h3.47V80.2H15Zm1.7-1.68c0-.87.42-1.3,1.25-1.3h3.36v1.64H18.43a.31.31,0,0,0-.38.39,2.1,2.1,0,0,0,.06.48,3.55,3.55,0,0,0,.24.64l-.76.16a3.57,3.57,0,0,1-.7-1A2.55,2.55,0,0,1,16.66,76.88Z" transform="translate(0.09 0.04)" style="fill:#fff"/></g></g></svg>