<svg xmlns="http://www.w3.org/2000/svg" xmlns:xlink="http://www.w3.org/1999/xlink" viewBox="0 0 406.8 406.8"><defs><radialGradient id="New_Gradient_Swatch_1" cx="388.9" cy="-81.2" r="447.3" gradientUnits="userSpaceOnUse"><stop offset="0" stop-color="#fff"/><stop offset="1"/></radialGradient><radialGradient id="radial-gradient" cx="228.29" cy="228.5" r="177.93" gradientUnits="userSpaceOnUse"><stop offset="0" stop-color="#39c4f3" stop-opacity="0.8"/><stop offset="1" stop-color="#94ffbc" stop-opacity="0.8"/></radialGradient></defs><g style="isolation:isolate"><g id="Layer_2" data-name="Layer 2"><g id="Layer_1-2" data-name="Layer 1"><path d="M406.8,203.4v1c0,4.78-.2,9.52-.58,14.21a201.5,201.5,0,0,1-19.94,73.93q-3.39,6.94-7.29,13.6c-.91,1.56-1.85,3.1-2.8,4.63a203.34,203.34,0,0,1-159.78,95.62q-6.45.41-13,.41-6.33,0-12.57-.38l-1.74-.11a204.61,204.61,0,0,1-26.52-3.61,202.4,202.4,0,0,1-62.45-24A204.23,204.23,0,0,1,30.75,311,201.78,201.78,0,0,1,5,248.55c-.16-.74-.33-1.48-.49-2.24Q3,239.29,2,232.08q-.39-2.72-.69-5.45A202.36,202.36,0,0,1,0,206.21c0-.61,0-1.21,0-1.81v-1A202.9,202.9,0,0,1,45.69,74.93c1.49-1.82,3-3.62,4.55-5.38q6.1-7,12.84-13.41c2-1.86,3.93-3.68,6-5.45a203.4,203.4,0,0,1,275.34,6.1,202.69,202.69,0,0,1,57.46,101.78c.34,1.53.67,3.06,1,4.61a199.48,199.48,0,0,1,3.53,26.52Q406.8,196.5,406.8,203.4Z" style="fill:#1e2335"/><path d="M406.8,203.4v1c0,4.78-.2,9.52-.58,14.21a201.5,201.5,0,0,1-19.94,73.93q-3.39,6.94-7.29,13.6c-.91,1.56-1.85,3.1-2.8,4.63a203.34,203.34,0,0,1-159.78,95.62q-6.45.41-13,.41-6.33,0-12.57-.38l-1.74-.11a204.61,204.61,0,0,1-26.52-3.61,202.4,202.4,0,0,1-62.45-24A204.23,204.23,0,0,1,30.75,311,201.78,201.78,0,0,1,5,248.55c-.16-.74-.33-1.48-.49-2.24Q3,239.29,2,232.08q-.39-2.72-.69-5.45A202.36,202.36,0,0,1,0,206.21c0-.61,0-1.21,0-1.81v-1A202.9,202.9,0,0,1,45.69,74.93c1.49-1.82,3-3.62,4.55-5.38q6.1-7,12.84-13.41c2-1.86,3.93-3.68,6-5.45a203.4,203.4,0,0,1,275.34,6.1,202.69,202.69,0,0,1,57.46,101.78c.34,1.53.67,3.06,1,4.61a199.48,199.48,0,0,1,3.53,26.52Q406.8,196.5,406.8,203.4Z" style="fill:#1e2335;opacity:0.55;mix-blend-mode:color-dodge"/><path d="M406.8,203.4v1c0,4.78-.2,9.52-.58,14.21a201.5,201.5,0,0,1-19.94,73.93q-3.39,6.94-7.29,13.6c-.91,1.56-1.85,3.1-2.8,4.63a203.34,203.34,0,0,1-159.78,95.62q-6.45.41-13,.41-6.33,0-12.57-.38l-1.74-.11a204.61,204.61,0,0,1-26.52-3.61,202.4,202.4,0,0,1-62.45-24A204.23,204.23,0,0,1,30.75,311,201.78,201.78,0,0,1,5,248.55c-.16-.74-.33-1.48-.49-2.24Q3,239.29,2,232.08q-.39-2.72-.69-5.45A202.36,202.36,0,0,1,0,206.21c0-.61,0-1.21,0-1.81v-1A202.9,202.9,0,0,1,45.69,74.93c1.49-1.82,3-3.62,4.55-5.38q6.1-7,12.84-13.41c2-1.86,3.93-3.68,6-5.45a203.4,203.4,0,0,1,275.34,6.1,202.69,202.69,0,0,1,57.46,101.78c.34,1.53.67,3.06,1,4.61a199.48,199.48,0,0,1,3.53,26.52Q406.8,196.5,406.8,203.4Z" style="opacity:0.55;mix-blend-mode:overlay;fill:url(#New_Gradient_Swatch_1)"/><g style="opacity:0.25;mix-blend-mode:screen"><path d="M406.8,203.4v1c0,4.78-.2,9.52-.58,14.21a201.5,201.5,0,0,1-19.94,73.93q-3.39,6.94-7.29,13.6c-.91,1.56-1.85,3.1-2.8,4.63a203.34,203.34,0,0,1-159.78,95.62q-6.45.41-13,.41-6.33,0-12.57-.38l-1.74-.11a204.61,204.61,0,0,1-26.52-3.61,202.4,202.4,0,0,1-62.45-24A204.23,204.23,0,0,1,30.75,311,201.78,201.78,0,0,1,5,248.55c-.16-.74-.33-1.48-.49-2.24Q3,239.29,2,232.08q-.39-2.72-.69-5.45A202.36,202.36,0,0,1,0,206.21c0-.61,0-1.21,0-1.81v-1A202.9,202.9,0,0,1,45.69,74.93c1.49-1.82,3-3.62,4.55-5.38q6.1-7,12.84-13.41c2-1.86,3.93-3.68,6-5.45a203.4,203.4,0,0,1,275.34,6.1,202.69,202.69,0,0,1,57.46,101.78c.34,1.53.67,3.06,1,4.61a199.48,199.48,0,0,1,3.53,26.52Q406.8,196.5,406.8,203.4Z" style="opacity:0.55;mix-blend-mode:overlay;fill:url(#New_Gradient_Swatch_1)"/></g><g style="opacity:0.25;mix-blend-mode:color-dodge"><path d="M406.8,203.4v1c0,4.78-.2,9.52-.58,14.21a201.5,201.5,0,0,1-19.94,73.93q-3.39,6.94-7.29,13.6c-.91,1.56-1.85,3.1-2.8,4.63a203.34,203.34,0,0,1-159.78,95.62q-6.45.41-13,.41-6.33,0-12.57-.38l-1.74-.11a204.61,204.61,0,0,1-26.52-3.61,202.4,202.4,0,0,1-62.45-24A204.23,204.23,0,0,1,30.75,311,201.78,201.78,0,0,1,5,248.55c-.16-.74-.33-1.48-.49-2.24Q3,239.29,2,232.08q-.39-2.72-.69-5.45A202.36,202.36,0,0,1,0,206.21c0-.61,0-1.21,0-1.81v-1A202.9,202.9,0,0,1,45.69,74.93c1.49-1.82,3-3.62,4.55-5.38q6.1-7,12.84-13.41c2-1.86,3.93-3.68,6-5.45a203.4,203.4,0,0,1,275.34,6.1,202.69,202.69,0,0,1,57.46,101.78c.34,1.53.67,3.06,1,4.61a199.48,199.48,0,0,1,3.53,26.52Q406.8,196.5,406.8,203.4Z" style="opacity:0.55;mix-blend-mode:overlay;fill:url(#New_Gradient_Swatch_1)"/></g><g style="mix-blend-mode:darken"><path d="M406.8,203.4v1c0,4.78-.2,9.52-.58,14.21a201.5,201.5,0,0,1-19.94,73.93q-3.39,6.94-7.29,13.6c-.91,1.56-1.85,3.1-2.8,4.63a203.34,203.34,0,0,1-159.78,95.62q-6.45.41-13,.41-6.33,0-12.57-.38l-1.74-.11a204.61,204.61,0,0,1-26.52-3.61,202.4,202.4,0,0,1-62.45-24A204.23,204.23,0,0,1,30.75,311,201.78,201.78,0,0,1,5,248.55c-.16-.74-.33-1.48-.49-2.24Q3,239.29,2,232.08q-.39-2.72-.69-5.45A202.36,202.36,0,0,1,0,206.21c0-.61,0-1.21,0-1.81v-1A202.9,202.9,0,0,1,45.69,74.93c1.49-1.82,3-3.62,4.55-5.38q6.1-7,12.84-13.41c2-1.86,3.93-3.68,6-5.45a203.4,203.4,0,0,1,275.34,6.1,202.69,202.69,0,0,1,57.46,101.78c.34,1.53.67,3.06,1,4.61a199.48,199.48,0,0,1,3.53,26.52Q406.8,196.5,406.8,203.4Z" style="opacity:0.55;mix-blend-mode:overlay;fill:url(#New_Gradient_Swatch_1)"/></g><path d="M402.81,163.18l-97.16-.26L232.85,90l-98.13,26.39L69,50.69c-2,1.77-4,3.59-6,5.45q-6.72,6.4-12.84,13.41l65.92,65.92L90,232.8l72.54,72.41V402.7a204.61,204.61,0,0,0,26.52,3.61V310.78l96-25.73,25.59-95.61,95.65.26A199.48,199.48,0,0,0,402.81,163.18ZM263.35,263.3l-83,22.28L119.6,224.85l22.28-83,83-22.28,60.74,60.74Z" style="fill:url(#radial-gradient)"/></g></g></g></svg>