<svg xmlns="http://www.w3.org/2000/svg" xmlns:xlink="http://www.w3.org/1999/xlink" viewBox="0 0 406.8 406.8"><defs><radialGradient id="New_Gradient_Swatch_1" cx="388.9" cy="-81.2" r="447.3" gradientUnits="userSpaceOnUse"><stop offset="0" stop-color="#fff"/><stop offset="1"/></radialGradient><radialGradient id="radial-gradient" cx="206.04" cy="385.67" r="411.16" gradientTransform="translate(-0.47 -1.57) scale(1 1.01)" gradientUnits="userSpaceOnUse"><stop offset="0" stop-color="#39c4f3" stop-opacity="0.8"/><stop offset="1" stop-color="#94ffbc" stop-opacity="0.8"/></radialGradient></defs><g style="isolation:isolate"><g id="Layer_2" data-name="Layer 2"><g id="Layer_1-2" data-name="Layer 1"><g id="zonulet_harmony"><path d="M406.8,203.4v1c0,4.78-.2,9.52-.58,14.21a201.5,201.5,0,0,1-19.94,73.93q-3.39,6.94-7.29,13.6c-.91,1.56-1.85,3.1-2.8,4.63a203.34,203.34,0,0,1-159.78,95.62q-6.45.41-13,.41-6.33,0-12.57-.38a202.44,202.44,0,0,1-90.71-27.75A204.23,204.23,0,0,1,30.75,311,201.78,201.78,0,0,1,5,248.55c-.16-.74-.33-1.48-.49-2.24Q3,239.29,2,232.08q-.39-2.72-.69-5.45A202.36,202.36,0,0,1,0,206.21c0-.61,0-1.21,0-1.81v-1A203.4,203.4,0,0,1,344.38,56.79a202.69,202.69,0,0,1,57.46,101.78A203.75,203.75,0,0,1,406.8,203.4Z" style="fill:#1e2335"/><path d="M406.8,203.4v1c0,4.78-.2,9.52-.58,14.21a201.5,201.5,0,0,1-19.94,73.93q-3.39,6.94-7.29,13.6c-.91,1.56-1.85,3.1-2.8,4.63a203.34,203.34,0,0,1-159.78,95.62q-6.45.41-13,.41-6.33,0-12.57-.38a202.44,202.44,0,0,1-90.71-27.75A204.23,204.23,0,0,1,30.75,311,201.78,201.78,0,0,1,5,248.55c-.16-.74-.33-1.48-.49-2.24Q3,239.29,2,232.08q-.39-2.72-.69-5.45A202.36,202.36,0,0,1,0,206.21c0-.61,0-1.21,0-1.81v-1A203.4,203.4,0,0,1,344.38,56.79a202.69,202.69,0,0,1,57.46,101.78A203.75,203.75,0,0,1,406.8,203.4Z" style="fill:#1e2335;opacity:0.55;mix-blend-mode:color-dodge"/><path d="M406.8,203.4v1c0,4.78-.2,9.52-.58,14.21a201.5,201.5,0,0,1-19.94,73.93q-3.39,6.94-7.29,13.6c-.91,1.56-1.85,3.1-2.8,4.63a203.34,203.34,0,0,1-159.78,95.62q-6.45.41-13,.41-6.33,0-12.57-.38a202.44,202.44,0,0,1-90.71-27.75A204.23,204.23,0,0,1,30.75,311,201.78,201.78,0,0,1,5,248.55c-.16-.74-.33-1.48-.49-2.24Q3,239.29,2,232.08q-.39-2.72-.69-5.45A202.36,202.36,0,0,1,0,206.21c0-.61,0-1.21,0-1.81v-1A203.4,203.4,0,0,1,344.38,56.79a202.69,202.69,0,0,1,57.46,101.78A203.75,203.75,0,0,1,406.8,203.4Z" style="opacity:0.55;mix-blend-mode:overlay;fill:url(#New_Gradient_Swatch_1)"/><g style="opacity:0.25;mix-blend-mode:screen"><path d="M406.8,203.4v1c0,4.78-.2,9.52-.58,14.21a201.5,201.5,0,0,1-19.94,73.93q-3.39,6.94-7.29,13.6c-.91,1.56-1.85,3.1-2.8,4.63a203.34,203.34,0,0,1-159.78,95.62q-6.45.41-13,.41-6.33,0-12.57-.38a202.44,202.44,0,0,1-90.71-27.75A204.23,204.23,0,0,1,30.75,311,201.78,201.78,0,0,1,5,248.55c-.16-.74-.33-1.48-.49-2.24Q3,239.29,2,232.08q-.39-2.72-.69-5.45A202.36,202.36,0,0,1,0,206.21c0-.61,0-1.21,0-1.81v-1A203.4,203.4,0,0,1,344.38,56.79a202.69,202.69,0,0,1,57.46,101.78A203.75,203.75,0,0,1,406.8,203.4Z" style="opacity:0.55;mix-blend-mode:overlay;fill:url(#New_Gradient_Swatch_1)"/></g><g style="opacity:0.25;mix-blend-mode:color-dodge"><path d="M406.8,203.4v1c0,4.78-.2,9.52-.58,14.21a201.5,201.5,0,0,1-19.94,73.93q-3.39,6.94-7.29,13.6c-.91,1.56-1.85,3.1-2.8,4.63a203.34,203.34,0,0,1-159.78,95.62q-6.45.41-13,.41-6.33,0-12.57-.38a202.44,202.44,0,0,1-90.71-27.75A204.23,204.23,0,0,1,30.75,311,201.78,201.78,0,0,1,5,248.55c-.16-.74-.33-1.48-.49-2.24Q3,239.29,2,232.08q-.39-2.72-.69-5.45A202.36,202.36,0,0,1,0,206.21c0-.61,0-1.21,0-1.81v-1A203.4,203.4,0,0,1,344.38,56.79a202.69,202.69,0,0,1,57.46,101.78A203.75,203.75,0,0,1,406.8,203.4Z" style="opacity:0.55;mix-blend-mode:overlay;fill:url(#New_Gradient_Swatch_1)"/></g><g style="mix-blend-mode:darken"><path d="M406.8,203.4v1c0,4.78-.2,9.52-.58,14.21a201.5,201.5,0,0,1-19.94,73.93q-3.39,6.94-7.29,13.6c-.91,1.56-1.85,3.1-2.8,4.63a203.34,203.34,0,0,1-159.78,95.62q-6.45.41-13,.41-6.33,0-12.57-.38a202.44,202.44,0,0,1-90.71-27.75A204.23,204.23,0,0,1,30.75,311,201.78,201.78,0,0,1,5,248.55c-.16-.74-.33-1.48-.49-2.24Q3,239.29,2,232.08q-.39-2.72-.69-5.45A202.36,202.36,0,0,1,0,206.21c0-.61,0-1.21,0-1.81v-1A203.4,203.4,0,0,1,344.38,56.79a202.69,202.69,0,0,1,57.46,101.78A203.75,203.75,0,0,1,406.8,203.4Z" style="opacity:0.55;mix-blend-mode:overlay;fill:url(#New_Gradient_Swatch_1)"/></g><path d="M344.38,56.79l-.51.5-3.1,3,0,.05-4.48,4.6-44.63,44.49-88-50.75-87.48,50.49L66.92,60,63.6,56.66l-.52-.52A204.72,204.72,0,0,0,45.69,74.93l.45.45,3.27,3.27,55.09,55.06V291.2l1.54.89,84.79,49v65.37q6.24.38,12.57.38,6.56,0,13-.41V341.05l84.92-49,1.53-.89V133.46l.52.51,50.13-50.24,4.6-4.6.11-.11,3-3,.45-.44A201,201,0,0,0,344.38,56.79ZM130.08,276.37V245.18l60.75,35v31.32Zm147.21,0-60.88,35.15V280.2l60.88-35.15Zm0-60.72-60.88,35V178.84H190.83v71.83l-60.75-35V191.49l73.54-42.57,73.67,42.57Zm0-53.69L203.62,119.4l-73.54,42.43V130.65l73.54-42.57,73.67,42.57Z" style="fill:url(#radial-gradient)"/></g></g></g></g></svg>