<svg
  id="chart"
  width="1000"
  height="500"
  viewBox="0 0 1000 500"
  xmlns="http://www.w3.org/2000/svg"
>  
  		  
  <path d="  M0,500  h72.72727272727273  v-6.7151739963754835  q0,-3 -3,-3  h-66.72727272727273  q-3,0 -3,3  Z" fill="#20ebf0" />
<path d="  M90.9090909090909,500  h72.72727272727273  v-43.67860565829187  q0,-3 -3,-3  h-66.72727272727273  q-3,0 -3,3  Z" fill="#20ebf0" />
<path d="  M181.8181818181818,500  h72.72727272727273  v-52.1610171468825  q0,-3 -3,-3  h-66.72727272727273  q-3,0 -3,3  Z" fill="#20ebf0" />
<path d="  M272.72727272727275,500  h72.72727272727273  v-117.22957533897949  q0,-3 -3,-3  h-66.72727272727273  q-3,0 -3,3  Z" fill="#20ebf0" />
<path d="  M363.6363636363636,500  h72.72727272727273  v-106.73649736883459  q0,-3 -3,-3  h-66.72727272727273  q-3,0 -3,3  Z" fill="#20ebf0" />
<path d="  M454.5454545454545,500  h72.72727272727273  v-191.9607141889487  q0,-3 -3,-3  h-66.72727272727273  q-3,0 -3,3  Z" fill="#20ebf0" />
<path d="  M545.4545454545455,500  h72.72727272727273  v-180.29718742559908  q0,-3 -3,-3  h-66.72727272727273  q-3,0 -3,3  Z" fill="#20ebf0" />
<path d="  M636.3636363636364,500  h72.72727272727273  v-216.89870289794555  q0,-3 -3,-3  h-66.72727272727273  q-3,0 -3,3  Z" fill="#20ebf0" />
<path d="  M727.2727272727273,500  h72.72727272727273  v-271.00060070407096  q0,-3 -3,-3  h-66.72727272727273  q-3,0 -3,3  Z" fill="#20ebf0" />
<path d="  M818.1818181818181,500  h72.72727272727273  v-274.08048307179354  q0,-3 -3,-3  h-66.72727272727273  q-3,0 -3,3  Z" fill="#20ebf0" />
<path d="  M909.090909090909,500  h72.72727272727273  v-251.4366532757575  q0,-3 -3,-3  h-66.72727272727273  q-3,0 -3,3  Z" fill="#20ebf0" />
</svg>