<svg xmlns="http://www.w3.org/2000/svg" xmlns:xlink="http://www.w3.org/1999/xlink" viewBox="0 0 406.8 406.79"><defs><style>.cls-1,.cls-2{fill:#1e2335;}.cls-2,.cls-3{opacity:0.55;isolation:isolate;}.cls-3{fill:url(#radial-gradient);}.cls-4{opacity:0.25;}.cls-5{fill:url(#New_Gradient_Swatch);}</style><radialGradient id="radial-gradient" cx="388.9" cy="302.77" r="447.3" gradientTransform="translate(0 -383.93)" gradientUnits="userSpaceOnUse"><stop offset="0" stop-color="#fff"/><stop offset="1"/></radialGradient><linearGradient id="New_Gradient_Swatch" x1="54.69" y1="203.5" x2="351.31" y2="203.5" gradientUnits="userSpaceOnUse"><stop offset="0" stop-color="#6fc282" stop-opacity="0.8"/><stop offset="1" stop-color="#72cddf" stop-opacity="0.8"/></linearGradient></defs><g id="Layer_2" data-name="Layer 2"><g id="Layer_1-2" data-name="Layer 1"><path class="cls-1" d="M406.8,203.43c0,5.11-.18,10.19-.58,15.21a201.51,201.51,0,0,1-19.94,73.93q-3.39,6.94-7.29,13.6c-.91,1.56-1.85,3.1-2.8,4.63C316.77,406.23,191.24,435.42,95.81,376A203.54,203.54,0,0,1,14.5,279,199.65,199.65,0,0,1,5,248.58c-.16-.74-.33-1.48-.49-2.24Q3,239.32,2,232.11q-.39-2.72-.69-5.45A202.06,202.06,0,0,1,0,206.24v-2.81C0,91.1,91,0,203.37,0S406.78,91,406.8,203.37Z"/><path class="cls-2" d="M406.8,203.43c0,5.11-.18,10.19-.58,15.21a201.51,201.51,0,0,1-19.94,73.93q-3.39,6.94-7.29,13.6c-.91,1.56-1.85,3.1-2.8,4.63C316.77,406.23,191.24,435.42,95.81,376A203.54,203.54,0,0,1,14.5,279,199.65,199.65,0,0,1,5,248.58c-.16-.74-.33-1.48-.49-2.24Q3,239.32,2,232.11q-.39-2.72-.69-5.45A202.06,202.06,0,0,1,0,206.24v-2.81C0,91.1,91,0,203.37,0S406.78,91,406.8,203.37Z"/><path class="cls-3" d="M406.8,203.43c0,5.11-.18,10.19-.58,15.21a201.51,201.51,0,0,1-19.94,73.93q-3.39,6.94-7.29,13.6c-.91,1.56-1.85,3.1-2.8,4.63C316.77,406.23,191.24,435.42,95.81,376A203.54,203.54,0,0,1,14.5,279,199.65,199.65,0,0,1,5,248.58c-.16-.74-.33-1.48-.49-2.24Q3,239.32,2,232.11q-.39-2.72-.69-5.45A202.06,202.06,0,0,1,0,206.24v-2.81C0,91.1,91,0,203.37,0S406.78,91,406.8,203.37Z"/><g class="cls-4"><path class="cls-3" d="M406.8,203.43c0,5.11-.18,10.19-.58,15.21a201.51,201.51,0,0,1-19.94,73.93q-3.39,6.94-7.29,13.6c-.91,1.56-1.85,3.1-2.8,4.63C316.77,406.23,191.24,435.42,95.81,376A203.54,203.54,0,0,1,14.5,279,199.65,199.65,0,0,1,5,248.58c-.16-.74-.33-1.48-.49-2.24Q3,239.32,2,232.11q-.39-2.72-.69-5.45A202.06,202.06,0,0,1,0,206.24v-2.81C0,91.1,91,0,203.37,0S406.78,91,406.8,203.37Z"/></g><g class="cls-4"><path class="cls-3" d="M406.8,203.43c0,5.11-.18,10.19-.58,15.21a201.51,201.51,0,0,1-19.94,73.93q-3.39,6.94-7.29,13.6c-.91,1.56-1.85,3.1-2.8,4.63C316.77,406.23,191.24,435.42,95.81,376A203.54,203.54,0,0,1,14.5,279,199.65,199.65,0,0,1,5,248.58c-.16-.74-.33-1.48-.49-2.24Q3,239.32,2,232.11q-.39-2.72-.69-5.45A202.06,202.06,0,0,1,0,206.24v-2.81C0,91.1,91,0,203.37,0S406.78,91,406.8,203.37Z"/></g><path class="cls-3" d="M406.8,203.43c0,5.11-.18,10.19-.58,15.21a201.51,201.51,0,0,1-19.94,73.93q-3.39,6.94-7.29,13.6c-.91,1.56-1.85,3.1-2.8,4.63C316.77,406.23,191.24,435.42,95.81,376A203.54,203.54,0,0,1,14.5,279,199.65,199.65,0,0,1,5,248.58c-.16-.74-.33-1.48-.49-2.24Q3,239.32,2,232.11q-.39-2.72-.69-5.45A202.06,202.06,0,0,1,0,206.24v-2.81C0,91.1,91,0,203.37,0S406.78,91,406.8,203.37Z"/><path class="cls-5" d="M279.29,152.77c-5.43-3.1-12.4-3.1-18.59,0l-43.37,25.56L187.9,194.59l-42.6,25.56c-5.42,3.1-12.39,3.1-18.59,0L93.41,200a18.86,18.86,0,0,1-9.29-16.26V145a19.13,19.13,0,0,1,9.29-16.27l33.3-19.36c5.43-3.1,12.4-3.1,18.59,0l33.3,20.14a18.86,18.86,0,0,1,9.3,16.26v25.56l29.43-17V128a19.11,19.11,0,0,0-9.3-16.27l-61.95-36.4c-5.43-3.09-12.4-3.09-18.59,0L64,112.5A17,17,0,0,0,54.69,128v72.8A19.07,19.07,0,0,0,64,217.05l62.73,36.4c5.43,3.1,12.4,3.1,18.59,0l42.6-24.78,29.43-17,42.59-24.78c5.43-3.1,12.4-3.1,18.59,0l33.3,19.36a18.86,18.86,0,0,1,9.3,16.26V261.2a19.1,19.1,0,0,1-9.3,16.26l-32.52,19.36c-5.43,3.1-12.4,3.1-18.59,0l-33.3-19.36a18.86,18.86,0,0,1-9.3-16.26V236.42l-29.43,17V279a19.11,19.11,0,0,0,9.3,16.27l62.73,36.4c5.42,3.09,12.39,3.09,18.59,0L342,295.28A18.89,18.89,0,0,0,351.31,279V205.44A19.09,19.09,0,0,0,342,189.17Z"/></g></g></svg>