<svg xmlns="http://www.w3.org/2000/svg" xmlns:xlink="http://www.w3.org/1999/xlink" viewBox="0 0 31.93 32.08"><defs><style>.cls-1{fill:url(#linear-gradient);}.cls-2{fill:#2e2e4e;}</style><linearGradient id="linear-gradient" x1="183.13" y1="-2.42" x2="191.16" y2="-32.43" gradientTransform="translate(-127.68 -105.38) rotate(45)" gradientUnits="userSpaceOnUse"><stop offset="0" stop-color="#ff7a3b" stop-opacity="0.8"/><stop offset="1" stop-color="#f91e47" stop-opacity="0.8"/></linearGradient></defs><g id="Layer_2" data-name="Layer 2"><g id="Layer_1-2" data-name="Layer 1"><path class="cls-1" d="M26.94,5.16h0a15.65,15.65,0,0,0-15-4.1h0a15.29,15.29,0,0,0-11,11h0a15.63,15.63,0,0,0,4,15h0a15.62,15.62,0,0,0,15,4h0a15.35,15.35,0,0,0,11-11h0A15.56,15.56,0,0,0,26.94,5.16Z"/><path class="cls-2" d="M28.34,6c-.2-.3-.4-.5-.6-.8s-.3-.3-.4-.5l-.3-.3a16,16,0,0,0-22.1,0l-.7.7c-.2.3-.4.5-.6.8A16.19,16.19,0,0,0,.74,21a4.1,4.1,0,0,0,.4,1,4.35,4.35,0,0,1,.4,1,15.19,15.19,0,0,0,3.1,4.4,16.22,16.22,0,0,0,10.3,4.7h2a15.65,15.65,0,0,0,3.1-.5A16.1,16.1,0,0,0,30.34,23a4.54,4.54,0,0,0,.4-1c.1-.3.3-.7.4-1a2.41,2.41,0,0,0,.2-.8A15.48,15.48,0,0,0,28.34,6Zm1.8,15a4.54,4.54,0,0,1-.4,1c-.2.3-.3.7-.5,1a14.89,14.89,0,0,1-9.5,7.6c-.95.21-1.92.38-2.9.5h-2a14.62,14.62,0,0,1-9.6-4.4A16.34,16.34,0,0,1,2.54,23c-.2-.3-.3-.7-.5-1a3.74,3.74,0,0,1-.4-1,15,15,0,0,1,2.5-14.3,4.84,4.84,0,0,1,.7-.8,4.63,4.63,0,0,1,.7-.7,14.47,14.47,0,0,1,6.4-3.6,15,15,0,0,1,14.3,3.6l.3.3.4.5a5.39,5.39,0,0,1,.6.8,15.15,15.15,0,0,1,2.8,13.3A3.09,3.09,0,0,1,30.14,21Z"/><path class="cls-2" d="M22,11.79a1.55,1.55,0,0,0-1.45,0l-3.41,2-2.31,1.27-3.34,2a1.57,1.57,0,0,1-1.46,0L7.41,15.5a1.47,1.47,0,0,1-.73-1.28v-3a1.48,1.48,0,0,1,.73-1.27L10,8.39a1.57,1.57,0,0,1,1.46,0L14.09,10a1.47,1.47,0,0,1,.73,1.27v2l2.31-1.34V9.85a1.49,1.49,0,0,0-.73-1.28L11.54,5.71a1.57,1.57,0,0,0-1.46,0l-5,2.92a1.33,1.33,0,0,0-.73,1.22v5.71a1.5,1.5,0,0,0,.73,1.28L10,19.69a1.57,1.57,0,0,0,1.46,0l3.34-1.94,2.31-1.34,3.34-1.94a1.51,1.51,0,0,1,1.46,0L24.55,16a1.5,1.5,0,0,1,.73,1.28v3a1.52,1.52,0,0,1-.73,1.28L22,23.09a1.49,1.49,0,0,1-1.45,0l-2.62-1.51a1.5,1.5,0,0,1-.73-1.28V18.35l-2.31,1.34v2A1.51,1.51,0,0,0,15.61,23l4.93,2.86a1.55,1.55,0,0,0,1.45,0L26.92,23a1.49,1.49,0,0,0,.73-1.27V15.92a1.51,1.51,0,0,0-.73-1.27Z"/></g></g></svg>