<svg xmlns="http://www.w3.org/2000/svg" xmlns:xlink="http://www.w3.org/1999/xlink" viewBox="0 0 56.83 169.72"><defs><style>.cls-1{fill:#c4c4c4;}.cls-2,.cls-8{fill:none;}.cls-3{mask:url(#mask);}.cls-4{clip-path:url(#clip-path);}.cls-5{fill:#151517;fill-opacity:0.5;stroke:url(#linear-gradient);}.cls-6,.cls-7,.cls-9{fill:#fff;}.cls-7{fill-rule:evenodd;}.cls-8{stroke:#f79461;stroke-width:0.5px;opacity:0.3;}.cls-8,.cls-9{isolation:isolate;}.cls-9{opacity:0.8;}</style><mask id="mask" x="0" y="0" width="56.83" height="169.74" maskUnits="userSpaceOnUse"><g transform="translate(0.09 0.04)"><g id="mask-2" data-name="mask"><g id="mask0_1565_13967" data-name="mask0 1565 13967"><rect class="cls-1" x="0.12" y="0.03" width="54.89" height="169.6" transform="translate(-0.21 0.07) rotate(-0.14)"/></g></g></g></mask><clipPath id="clip-path" transform="translate(0.09 0.04)"><rect class="cls-2" x="0.21" y="0.07" width="56.23" height="169.5" transform="translate(-0.21 0.07) rotate(-0.14)"/></clipPath><linearGradient id="linear-gradient" x1="166.87" y1="799.17" x2="66.35" y2="669.76" gradientTransform="translate(-79.35 -688.7) scale(0.91 1.05)" gradientUnits="userSpaceOnUse"><stop offset="0" stop-color="#6ae4ff" stop-opacity="0"/><stop offset="0.49" stop-color="#6ae4ff"/><stop offset="1" stop-color="#a39d8c" stop-opacity="0"/><stop offset="1" stop-color="#6ae4ff" stop-opacity="0"/></linearGradient></defs><g id="Layer_2" data-name="Layer 2"><g id="Layer_1-2" data-name="Layer 1"><g class="cls-3"><g class="cls-4"><rect class="cls-5" x="0.62" y="0.53" width="55.42" height="168.58" transform="translate(-0.12 0.11) rotate(-0.14)"/></g></g><path class="cls-6" d="M49.16,140.6H42.07a13.9,13.9,0,0,1-.17,2.13l7,1.09a20.36,20.36,0,0,0,.25-3.22Zm-.25-3.22a20.07,20.07,0,0,0-.76-3.15l-6.75,2.16a13.69,13.69,0,0,1,.5,2.08ZM48.15,147,41.4,144.8a12.63,12.63,0,0,1-.83,2L46.89,150A20.58,20.58,0,0,0,48.15,147ZM46.9,131.24a20.12,20.12,0,0,0-1.71-2.76l-5.74,4.13a13.51,13.51,0,0,1,1.13,1.82Zm-1.72,21.48-5.74-4.13a14.26,14.26,0,0,1-1.4,1.62l5,5h0A21.4,21.4,0,0,0,45.18,152.72ZM43.1,126.06l0,0a20.62,20.62,0,0,0-2.48-2.09l-4.18,5.66A14.51,14.51,0,0,1,38,131l.07.07,2.28-2.39Zm-2.53,31.21-4.18-5.67a13.12,13.12,0,0,1-1.83,1.11L37.78,159a19.36,19.36,0,0,0,2.79-1.69Zm-2.78-35a20.83,20.83,0,0,0-3-1.24l-2.2,6.67a13.41,13.41,0,0,1,2,.82Zm-3,38-2.19-6.67a13.63,13.63,0,0,1-2.1.49L31.57,161a20.14,20.14,0,0,0,3.18-.75Zm-3.17-40a20.87,20.87,0,0,0-3.26-.26v7a14.18,14.18,0,0,1,2.16.16Zm-3.27,34a14.19,14.19,0,0,1-2.16-.17L25.05,161a22.16,22.16,0,0,0,3.26.26v-7Zm-2.14-27-1.11-6.93a21.91,21.91,0,0,0-3.18.75l2.18,6.68a13.93,13.93,0,0,1,2.1-.5Zm-2.11,26.37a14,14,0,0,1-2-.82L18.84,159a20.5,20.5,0,0,0,3,1.24l2.19-6.67Zm-2-25.06-3.21-6.25a19.47,19.47,0,0,0-2.8,1.69l4.18,5.67a14.86,14.86,0,0,1,1.83-1.11ZM20.23,151.6a14.62,14.62,0,0,1-1.65-1.39v0l-5,5,0,0a20.7,20.7,0,0,0,2.48,2.1ZM18.61,131l-1.55-1.49L13.57,126h0a22.24,22.24,0,0,0-2.11,2.44l5.73,4.13a13.35,13.35,0,0,1,1.4-1.61l0,0Zm-1.44,17.62A13.51,13.51,0,0,1,16,146.75l-6.32,3.18a20.12,20.12,0,0,0,1.71,2.76Zm-1.12-14.16-6.31-3.19a19.69,19.69,0,0,0-1.26,3l6.75,2.16a12.94,12.94,0,0,1,.83-2Zm-.83,10.38a13.69,13.69,0,0,1-.5-2.08l-7,1.08a19.81,19.81,0,0,0,.76,3.15l6.75-2.15Zm-.49-6.34-7-1.1a20.46,20.46,0,0,0-.26,3.22h7.09a12.67,12.67,0,0,1,.18-2.13Z" transform="translate(0.09 0.04)"/><path class="cls-6" d="M42.38,140.6H35.25a6.89,6.89,0,0,1-.23,1.75l6.89,1.83A14,14,0,0,0,42.38,140.6ZM41.91,137a14,14,0,0,0-1.39-3.35l-6.18,3.55a6.86,6.86,0,0,1,.68,1.63Zm-1.4,10.52L34.34,144a7,7,0,0,1-1.09,1.41l-.06.06,2.37,2.24,2.7,2.75,0,0a13.65,13.65,0,0,0,2.21-2.87ZM38.3,130.79h0a14,14,0,0,0-2.89-2.2l-3.57,6.14a6.37,6.37,0,0,1,1.41,1.08Zm-2.9,21.82-3.56-6.14a7.07,7.07,0,0,1-1.64.67L32,154A14.17,14.17,0,0,0,35.4,152.61ZM32.05,127.2a14.19,14.19,0,0,0-3.61-.47v7.09a7,7,0,0,1,1.77.23l1.84-6.85Zm-3.62,20.17a6.91,6.91,0,0,1-1.76-.23L24.82,154a14.12,14.12,0,0,0,3.6.47v-7.09Zm-1.76-13.32-1.83-6.85a14,14,0,0,0-3.37,1.38L25,134.72A6.83,6.83,0,0,1,26.67,134.05ZM25,146.46a6.88,6.88,0,0,1-1.4-1.06v0l-2.55,2.54-2.53,2.44,0,0a13.86,13.86,0,0,0,2.87,2.2L25,146.46Zm-4,1.46,0,0Zm2.57-12.12-2.53-2.51-2.46-2.56-.06.06a14.25,14.25,0,0,0-2.22,2.86l6.18,3.56a6.52,6.52,0,0,1,1.07-1.39l0,0ZM22.53,144a6.83,6.83,0,0,1-.67-1.63L15,144.17a13.89,13.89,0,0,0,1.4,3.35Zm-.67-5.14L15,137a13.57,13.57,0,0,0-.48,3.59h7.14a6.6,6.6,0,0,1,.23-1.76Z" transform="translate(0.09 0.04)"/><path class="cls-7" d="M21.19,85.2H32.75V88h-9v.81l9.05,4.5V96.4L21.19,90.66h0V85.2Zm0,16.94L32.75,96.4v3.08l-9,4.5v.81h9.05v2.82H21.19v-5.47ZM32.75,53V50.17H21.19V53ZM26.48,77.3,23.7,75.92V74.44l2.78-1.39Zm6.27,3.12L29,78.55V71.81l3.76-1.87V66.86L21.19,72.6h0v5.15h0L32.75,83.5Zm-9-18h9.05v2.82H21.19v-6.5h0L32.75,53v3.08l-9,4.5Zm0-22.94h9.05v2.82h-9V48.6H21.19V33.16H23.7ZM21.19,31.6V28.78h9.06V19.86h2.5V31.6Zm6.87-16.12h2.19v-10h2.5V18.3H21.19V5.52H23.7v10h1.85V6.39h2.51Z" transform="translate(0.09 0.04)"/><path class="cls-8" d="M37,108.09V6" transform="translate(0.09 0.04)"/><path class="cls-9" d="M49.67,104,42.08,107v-1.23l6-2.3-6-2.15v-.89l6-2.13-6-2.31V94.79l7.59,3.09v.86l-5.88,2.18,5.88,2.17Zm0-16.51-1.16.43v3.74l1.16.42v1.27l-7.59-3v-1l7.59-3Zm-2.06,3.83V88.22l-4.17,1.54Zm2.06-8.4H42.08V80a4.81,4.81,0,0,1,1.11-3.36,3.55,3.55,0,0,1,5.36,0A4.77,4.77,0,0,1,49.67,80Zm-.89-1.17v-1.6a3.57,3.57,0,0,0-.86-2.56,2.78,2.78,0,0,0-4.1,0A3.57,3.57,0,0,0,43,80.12v1.6Zm1.06-12.25a3.8,3.8,0,0,1-.68,2.39,2.31,2.31,0,0,1-1.91.86V71.55A1.58,1.58,0,0,0,48.51,71,2.34,2.34,0,0,0,49,69.48a2.23,2.23,0,0,0-.32-1.31,1.09,1.09,0,0,0-.93-.46,1.06,1.06,0,0,0-.81.33,2.72,2.72,0,0,0-.53,1.11l-.44,1.49c-.33,1.2-1,1.81-2,1.81a1.71,1.71,0,0,1-1.47-.79,3.38,3.38,0,0,1-.57-2,3.32,3.32,0,0,1,.63-2.12,2,2,0,0,1,1.69-.8v1.17a1.31,1.31,0,0,0-1.08.47,2.42,2.42,0,0,0-.08,2.5,1,1,0,0,0,.83.43,1,1,0,0,0,.79-.38,3.37,3.37,0,0,0,.55-1.2l.41-1.39c.36-1.18,1-1.78,2-1.78a1.86,1.86,0,0,1,1.57.81A3.55,3.55,0,0,1,49.84,69.47Zm-.17-6.54H42.08V61.76h6.66V57.93h.93Zm0-8.62H42.08V49.2H43v3.94h2.49V49.2h.89v3.94h2.44V49.2h.89Zm-7.59-14V39l7.59,4.52v1.3l-3-1.81-4.57,3.4V45.05l3.55-2.63Z" transform="translate(0.09 0.04)"/><path class="cls-6" d="M10.5,107.08v-2c0-1.2.34-2.14,1.45-2.14a1.33,1.33,0,0,1,1.25.76h0a1.32,1.32,0,0,1,1.37-1c1.18,0,1.71,1,1.71,2.27v2.16Zm2.33-1.93c0-.64-.26-.93-.69-.93s-.62.3-.62.92v.62h1.31Zm2.48-.12c0-.72-.26-1.09-.79-1.09s-.71.36-.71,1.09v.73h1.5Z" transform="translate(0.09 0.04)"/><path class="cls-6" d="M13.63,101.7H10.5v-1.31h3.26c1.14,0,1.54-.36,1.54-1s-.4-1-1.54-1H10.5V97.08h3.13c1.95,0,2.8.79,2.8,2.3S15.58,101.7,13.63,101.7Z" transform="translate(0.09 0.04)"/><path class="cls-6" d="M10.5,95.73V94.42h5.82v1.31Z" transform="translate(0.09 0.04)"/><path class="cls-6" d="M10.5,93V91.73h4.72v-2.3h1.1V93Z" transform="translate(0.09 0.04)"/><path class="cls-6" d="M11.61,88.35V90H10.5V85.43h1.11V87h4.71v1.32Z" transform="translate(0.09 0.04)"/><path class="cls-6" d="M10.5,83.3V82l2.72-.4,1.84-.24v0l-1.84-.35L10.5,80.3V79.19l2.72-.63,1.84-.35v0l-1.84-.24-2.72-.4V76.28l5.82,1V79l-2.64.57c-.45.09-.92.17-1.35.23v0c.43.07.9.14,1.35.23l2.64.55v1.63Z" transform="translate(0.09 0.04)"/><path class="cls-6" d="M10.5,75.47V74.16h5.82v1.31Z" transform="translate(0.09 0.04)"/><path class="cls-6" d="M11.61,71.64v1.61H10.5V68.73h1.11v1.6h4.71v1.31Z" transform="translate(0.09 0.04)"/><path class="cls-6" d="M10.5,67.82V66.5h2.25v-2H10.5V63.18h5.82v1.31H13.89v2h2.43v1.32Z" transform="translate(0.09 0.04)"/></g></g></svg>