<svg xmlns="http://www.w3.org/2000/svg" xmlns:xlink="http://www.w3.org/1999/xlink" viewBox="0 0 406.8 406.79"><defs><style>.cls-1,.cls-2{fill:#1e2335;}.cls-2,.cls-3{opacity:0.55;isolation:isolate;}.cls-3{fill:url(#radial-gradient);}.cls-4{opacity:0.25;}.cls-5{fill:url(#New_Gradient_Swatch);}.cls-6{fill:url(#New_Gradient_Swatch-2);}</style><radialGradient id="radial-gradient" cx="388.9" cy="489.23" r="447.3" gradientTransform="matrix(1, 0, 0, -1, 0, 408.07)" gradientUnits="userSpaceOnUse"><stop offset="0" stop-color="#fff"/><stop offset="1"/></radialGradient><linearGradient id="New_Gradient_Swatch" x1="134.83" y1="334.48" x2="275.53" y2="70.38" gradientUnits="userSpaceOnUse"><stop offset="0" stop-color="#6fc282" stop-opacity="0.8"/><stop offset="1" stop-color="#72cddf" stop-opacity="0.8"/></linearGradient><linearGradient id="New_Gradient_Swatch-2" x1="161.01" y1="286.17" x2="249.34" y2="120.39" xlink:href="#New_Gradient_Swatch"/></defs><g id="Layer_2" data-name="Layer 2"><g id="Layer_1-2" data-name="Layer 1"><path class="cls-1" d="M406.8,203.43c0,5.11-.18,10.19-.58,15.21a201.51,201.51,0,0,1-19.94,73.93q-3.39,6.94-7.29,13.6c-.91,1.56-1.85,3.1-2.8,4.63C316.77,406.23,191.24,435.42,95.81,376A203.52,203.52,0,0,1,14.5,279,200,200,0,0,1,5,248.58c-.16-.74-.33-1.48-.49-2.24Q3,239.32,2,232.11q-.39-2.72-.69-5.45A201.87,201.87,0,0,1,0,206.24v-2.81C0,91.1,91,0,203.37,0S406.78,91,406.8,203.37v.06Z"/><path class="cls-2" d="M406.8,203.43c0,5.11-.18,10.19-.58,15.21a201.51,201.51,0,0,1-19.94,73.93q-3.39,6.94-7.29,13.6c-.91,1.56-1.85,3.1-2.8,4.63C316.77,406.23,191.24,435.42,95.81,376A203.52,203.52,0,0,1,14.5,279,200,200,0,0,1,5,248.58c-.16-.74-.33-1.48-.49-2.24Q3,239.32,2,232.11q-.39-2.72-.69-5.45A201.87,201.87,0,0,1,0,206.24v-2.81C0,91.1,91,0,203.37,0S406.78,91,406.8,203.37v.06Z"/><path class="cls-3" d="M406.8,203.43c0,5.11-.18,10.19-.58,15.21a201.51,201.51,0,0,1-19.94,73.93q-3.39,6.94-7.29,13.6c-.91,1.56-1.85,3.1-2.8,4.63C316.77,406.23,191.24,435.42,95.81,376A203.52,203.52,0,0,1,14.5,279,200,200,0,0,1,5,248.58c-.16-.74-.33-1.48-.49-2.24Q3,239.32,2,232.11q-.39-2.72-.69-5.45A201.87,201.87,0,0,1,0,206.24v-2.81C0,91.1,91,0,203.37,0S406.78,91,406.8,203.37v.06Z"/><g class="cls-4"><path class="cls-3" d="M406.8,203.43c0,5.11-.18,10.19-.58,15.21a201.51,201.51,0,0,1-19.94,73.93q-3.39,6.94-7.29,13.6c-.91,1.56-1.85,3.1-2.8,4.63C316.77,406.23,191.24,435.42,95.81,376A203.52,203.52,0,0,1,14.5,279,200,200,0,0,1,5,248.58c-.16-.74-.33-1.48-.49-2.24Q3,239.32,2,232.11q-.39-2.72-.69-5.45A201.87,201.87,0,0,1,0,206.24v-2.81C0,91.1,91,0,203.37,0S406.78,91,406.8,203.37v.06Z"/></g><g class="cls-4"><path class="cls-3" d="M406.8,203.43c0,5.11-.18,10.19-.58,15.21a201.51,201.51,0,0,1-19.94,73.93q-3.39,6.94-7.29,13.6c-.91,1.56-1.85,3.1-2.8,4.63C316.77,406.23,191.24,435.42,95.81,376A203.52,203.52,0,0,1,14.5,279,200,200,0,0,1,5,248.58c-.16-.74-.33-1.48-.49-2.24Q3,239.32,2,232.11q-.39-2.72-.69-5.45A201.87,201.87,0,0,1,0,206.24v-2.81C0,91.1,91,0,203.37,0S406.78,91,406.8,203.37v.06Z"/></g><path class="cls-3" d="M406.8,203.43c0,5.11-.18,10.19-.58,15.21a201.51,201.51,0,0,1-19.94,73.93q-3.39,6.94-7.29,13.6c-.91,1.56-1.85,3.1-2.8,4.63C316.77,406.23,191.24,435.42,95.81,376A203.52,203.52,0,0,1,14.5,279,200,200,0,0,1,5,248.58c-.16-.74-.33-1.48-.49-2.24Q3,239.32,2,232.11q-.39-2.72-.69-5.45A201.87,201.87,0,0,1,0,206.24v-2.81C0,91.1,91,0,203.37,0S406.78,91,406.8,203.37v.06Z"/><path class="cls-5" d="M205.14,351.93l0-50.88a99.27,99.27,0,0,1-15.5-1.22l-8,50.26a150.7,150.7,0,0,0,23.45,1.84Zm23.44-1.82a150.62,150.62,0,0,0,22.89-5.45l-15.72-48.4a98.14,98.14,0,0,1-15.1,3.59Zm-69.78-5.48,15.75-48.39a98.27,98.27,0,0,1-14.32-5.91L137,335.65A148.77,148.77,0,0,0,158.8,344.63Zm114.43-8.92a150,150,0,0,0,20.09-12.27l-30-41.15a97.06,97.06,0,0,1-13.21,8.08ZM117,323.36,147,282.24a102.27,102.27,0,0,1-11.8-10.07L99.09,308.12l0,0A150.52,150.52,0,0,0,117,323.36Zm194-14.9.31-.32a151.75,151.75,0,0,0,15.24-17.72l-41.25-30a101,101,0,0,1-10.08,11.74l-.51.52L292,289ZM83.82,290.32l41.27-29.95A96.83,96.83,0,0,1,117,247.2L71.5,270.29a147.59,147.59,0,0,0,12.32,20Zm255-19.93a150.76,150.76,0,0,0,9-21.69L299.29,233a97.89,97.89,0,0,1-5.93,14.28ZM62.5,248.59l48.56-15.68a98.75,98.75,0,0,1-3.61-15L57,225.78A150.12,150.12,0,0,0,62.5,248.6Zm290.83-22.7a151,151,0,0,0,1.85-23.36l-51,0A98.82,98.82,0,0,1,302.92,218ZM106.24,202.42A100,100,0,0,1,107.45,187L57,179a151.2,151.2,0,0,0-1.84,23.37h51.06ZM302.94,187l50.42-7.89a149.63,149.63,0,0,0-5.45-22.81L299.33,172A99.61,99.61,0,0,1,302.94,187ZM111.06,171.92A98.54,98.54,0,0,1,117,157.64L71.51,134.53a148.55,148.55,0,0,0-9,21.7l48.55,15.69Zm182.36-14.21,45.5-23.07a150,150,0,0,0-12.31-20l-41.29,29.93a99.85,99.85,0,0,1,8.1,13.17ZM125.11,144.47a99,99,0,0,1,10.11-11.78l.1-.1-36.09-36-.1.1a151.91,151.91,0,0,0-15.28,17.8Zm150.22-11.6,10.9-11.09,25.09-25-.08-.08a152.22,152.22,0,0,0-17.75-15.15l-30.09,41.1a98.15,98.15,0,0,1,11.75,10l.18.18ZM147.14,122.54a97.32,97.32,0,0,1,13.21-8.06L137.22,69.13a148.73,148.73,0,0,0-20.09,12.26Zm103.06-8,23.23-45.3a149.2,149.2,0,0,0-21.76-9l-15.79,48.38a98.48,98.48,0,0,1,14.33,5.93Zm-75.52-6a101.37,101.37,0,0,1,15.1-3.58l-7.89-50.27A150.59,150.59,0,0,0,159,60.17l15.68,48.41Zm46.1-3.55,8-50.26a152.1,152.1,0,0,0-23.44-1.84l-.05,50.88a99.36,99.36,0,0,1,15.5,1.22Z"/><path class="cls-6" d="M205.17,297.22V249.17a46.39,46.39,0,0,1-11.9-1.56L180.86,294A94.48,94.48,0,0,0,205.17,297.22Zm24.3-3.18a93.53,93.53,0,0,0,22.7-9.39L228.11,243a45,45,0,0,1-11,4.56Zm-71.32-9.4L182.22,243a46.17,46.17,0,0,1-9.51-7.31l-.44-.43-15.19,16-18.64,18.16.27.26a94.73,94.73,0,0,0,19.45,14.94Zm113.47-14.92h0a94.48,94.48,0,0,0,14.93-19.43L245,226.22a46.27,46.27,0,0,1-7.31,9.5Zm-147.9-19.53,41.65-24a45.27,45.27,0,0,1-4.56-11.05l-46.46,12.36A93.8,93.8,0,0,0,123.72,250.19ZM296,227.61a94.84,94.84,0,0,0,3.2-24.29l-48.08,0a45.91,45.91,0,0,1-1.57,11.9L296,227.61Zm-136.7-24.37a45.48,45.48,0,0,1,1.57-11.9L114.4,178.9a94,94,0,0,0-3.2,24.29l48.08.05Zm90.26-11.84L296,179a93.67,93.67,0,0,0-9.38-22.69l-41.64,24A45,45,0,0,1,249.53,191.4Zm-84.12-11.09a46.34,46.34,0,0,1,7.22-9.39l.12-.12-17.2-17.19-16.53-17-.31.29a94,94,0,0,0-14.9,19.36l41.6,24.09Zm-9.86-26.71.2.2Zm82.11,17.26,17-17,17.37-16.55-.43-.44a94.68,94.68,0,0,0-19.4-14.92l-24.09,41.6a46,46,0,0,1,9.4,7.2l.12.13Zm-55.41-7.36a45.2,45.2,0,0,1,11-4.56L180.92,112.5a93.57,93.57,0,0,0-22.71,9.38ZM217.1,159l12.44-46.42a94.44,94.44,0,0,0-24.31-3.2l0,48.05a45.91,45.91,0,0,1,11.9,1.57Z"/></g></g></svg>