<svg xmlns="http://www.w3.org/2000/svg" xmlns:xlink="http://www.w3.org/1999/xlink" viewBox="0 0 31.91 32.05"><defs><style>.cls-1{fill:url(#linear-gradient);}.cls-2{fill:#2e2e4e;}.cls-3{fill:none;}</style><linearGradient id="linear-gradient" x1="1.21" y1="478.91" x2="9.24" y2="508.92" gradientTransform="matrix(0.71, 0.71, 0.71, -0.71, -337.09, 361.68)" gradientUnits="userSpaceOnUse"><stop offset="0" stop-color="#ff7a3b" stop-opacity="0.8"/><stop offset="1" stop-color="#f91e47" stop-opacity="0.8"/></linearGradient></defs><g id="Layer_2" data-name="Layer 2"><g id="Layer_1-2" data-name="Layer 1"><path class="cls-1" d="M26.92,5.18h0a15.65,15.65,0,0,0-15-4.1h0a15.32,15.32,0,0,0-11,11h0a15.63,15.63,0,0,0,4,15h0a15.63,15.63,0,0,0,15,4h0a15.32,15.32,0,0,0,11-11h0A15.54,15.54,0,0,0,26.92,5.18Z"/><path class="cls-2" d="M28.32,6.05c-.2-.3-.4-.5-.6-.8s-.3-.3-.4-.5l-.3-.3a16,16,0,0,0-22.1,0l-.7.7c-.2.3-.4.5-.6.8A16.2,16.2,0,0,0,.72,21a4.54,4.54,0,0,0,.4,1,4,4,0,0,1,.4,1,15.45,15.45,0,0,0,3.1,4.4,16.21,16.21,0,0,0,10.3,4.7h2a15.42,15.42,0,0,0,3.1-.5A16.1,16.1,0,0,0,30.32,23a4.1,4.1,0,0,0,.4-1c.1-.3.3-.7.4-1a2.24,2.24,0,0,0,.2-.8A15.43,15.43,0,0,0,28.32,6.05Zm1.8,15a4.1,4.1,0,0,1-.4,1c-.2.3-.3.7-.5,1a14.84,14.84,0,0,1-9.5,7.6c-.95.21-1.92.38-2.9.5h-2a14.64,14.64,0,0,1-9.6-4.4,16.34,16.34,0,0,1-2.7-3.7c-.2-.3-.3-.7-.5-1a4.18,4.18,0,0,1-.4-1,15,15,0,0,1,2.5-14.3,5.35,5.35,0,0,1,.7-.8,5.14,5.14,0,0,1,.7-.7,14.53,14.53,0,0,1,6.4-3.6,15,15,0,0,1,14.3,3.6l.3.3.4.5a4.64,4.64,0,0,1,.6.8,15.12,15.12,0,0,1,2.8,13.3A2.8,2.8,0,0,1,30.12,21.05Z"/><path class="cls-2" d="M16.18,27.34V23.51A7.46,7.46,0,0,1,15,23.42l-.6,3.78a11.5,11.5,0,0,0,1.76.14ZM18,27.2a10.25,10.25,0,0,0,1.72-.41l-1.18-3.64a7.27,7.27,0,0,1-1.14.27Zm-5.26-.41,1.19-3.65a7.88,7.88,0,0,1-1.08-.44l-1.75,3.41A10.69,10.69,0,0,0,12.69,26.79Zm8.62-.67a11.24,11.24,0,0,0,1.52-.93l-2.27-3.1a6.27,6.27,0,0,1-1,.61ZM9.54,25.19l2.26-3.1a8,8,0,0,1-.89-.76L8.19,24h0A11.39,11.39,0,0,0,9.54,25.19Zm14.62-1.12,0,0a11.19,11.19,0,0,0,1.15-1.33l-3.11-2.26a7.85,7.85,0,0,1-.76.88l0,0,1.31,1.23ZM7,22.7l3.11-2.26a6.76,6.76,0,0,1-.61-1L6.11,21.19A11.78,11.78,0,0,0,7,22.7Zm19.22-1.5a11.12,11.12,0,0,0,.68-1.64l-3.66-1.18a6.72,6.72,0,0,1-.45,1.07ZM5.43,19.55l3.66-1.18a7.43,7.43,0,0,1-.27-1.13L5,17.83a11,11,0,0,0,.41,1.72Zm21.92-1.71a11.5,11.5,0,0,0,.14-1.76H23.64a7.46,7.46,0,0,1-.09,1.16ZM8.73,16.07a7.46,7.46,0,0,1,.09-1.16L5,14.31a11.5,11.5,0,0,0-.14,1.76Zm14.82-1.16,3.8-.59a11.32,11.32,0,0,0-.41-1.72l-3.66,1.18a7.43,7.43,0,0,1,.27,1.13ZM9.09,13.77a7.13,7.13,0,0,1,.45-1.07L6.11,11a10.58,10.58,0,0,0-.68,1.63l3.66,1.18ZM22.84,12.7,26.27,11a11,11,0,0,0-.93-1.5l-3.11,2.25a9.06,9.06,0,0,1,.61,1Zm-12.69-1a7.27,7.27,0,0,1,.76-.89h0L8.2,8.1h0A11.42,11.42,0,0,0,7,9.45Zm11.32-.88.82-.83,1.9-1.89h0A12.15,12.15,0,0,0,22.84,7l-2.27,3.1a7.15,7.15,0,0,1,.89.76Zm-9.66-.78a7.85,7.85,0,0,1,1-.61L11.06,6A10.69,10.69,0,0,0,9.55,7Zm7.77-.6L21.33,6a11.12,11.12,0,0,0-1.64-.68L18.5,9a8.43,8.43,0,0,1,1.08.44ZM13.89,9A7.27,7.27,0,0,1,15,8.73l-.6-3.79a11.74,11.74,0,0,0-1.73.41L13.89,9Zm3.47-.27L18,4.94a11.49,11.49,0,0,0-1.76-.13V8.64a7.59,7.59,0,0,1,1.17.09Z"/><path class="cls-2" d="M16.18,23.22V19.6a3.35,3.35,0,0,1-.89-.12L14.35,23A7.13,7.13,0,0,0,16.18,23.22ZM18,23a7.1,7.1,0,0,0,1.71-.71l-1.82-3.14a3.18,3.18,0,0,1-.83.35Zm-5.38-.71,1.82-3.14a3.2,3.2,0,0,1-.72-.55l0,0-1.15,1.21-1.4,1.36,0,0a7.23,7.23,0,0,0,1.46,1.13Zm8.55-1.12h0a7.29,7.29,0,0,0,1.13-1.47l-3.14-1.81a3.14,3.14,0,0,1-.55.71ZM10.05,19.67l3.14-1.81a3.18,3.18,0,0,1-.35-.83L9.34,18A6.94,6.94,0,0,0,10.05,19.67ZM23,18a7,7,0,0,0,.24-1.83H19.65a3.48,3.48,0,0,1-.12.9L23,18Zm-10.3-1.83a3.82,3.82,0,0,1,.11-.9l-3.5-.94a7.07,7.07,0,0,0-.24,1.83Zm6.8-.9,3.5-.93a7.1,7.1,0,0,0-.71-1.71l-3.14,1.81A3.18,3.18,0,0,1,19.53,15.24Zm-6.34-.83a3.41,3.41,0,0,1,.54-.71h0l-1.29-1.3L11.2,11.11l0,0a7.23,7.23,0,0,0-1.13,1.46l3.14,1.82Zm-.74-2v0Zm6.18,1.3,1.29-1.28,1.31-1.25,0,0A6.6,6.6,0,0,0,19.73,10l-1.81,3.13a3.64,3.64,0,0,1,.7.54Zm-4.17-.55a3.16,3.16,0,0,1,.83-.34l-.93-3.5a6.91,6.91,0,0,0-1.71.7Zm2.62-.34L18,9.3a7.07,7.07,0,0,0-1.83-.24v3.62a3.48,3.48,0,0,1,.9.12Z"/><path class="cls-2" d="M16.18,28.8V24.47a8.17,8.17,0,0,1-1.31-.11l-.68,4.28a12,12,0,0,0,2,.16Zm2-.16a13.15,13.15,0,0,0,1.95-.46l-1.34-4.12a8.08,8.08,0,0,1-1.29.31Zm-5.94-.46,1.34-4.12a8.72,8.72,0,0,1-1.22-.51l-2,3.86A13.1,13.1,0,0,0,12.24,28.18ZM22,27.42a13.07,13.07,0,0,0,1.71-1.05l-2.56-3.5a8,8,0,0,1-1.12.69ZM8.68,26.37l2.56-3.5a8.34,8.34,0,0,1-1-.86L7.16,25.07h0A12.56,12.56,0,0,0,8.68,26.37ZM25.19,25.1l0,0a13.28,13.28,0,0,0,1.3-1.51L23,21a9.07,9.07,0,0,1-.86,1l0,0,1.47,1.39ZM5.86,23.55,9.37,21a8.75,8.75,0,0,1-.69-1.13l-3.87,2a12,12,0,0,0,1.05,1.7Zm21.7-1.69A13.1,13.1,0,0,0,28.33,20L24.2,18.67a8.72,8.72,0,0,1-.51,1.22ZM4,20l4.14-1.33a8.23,8.23,0,0,1-.31-1.28l-4.29.67A12.73,12.73,0,0,0,4,20ZM28.8,18.07a13.13,13.13,0,0,0,.15-2H24.61a8.17,8.17,0,0,1-.11,1.31Zm-21-2a8.17,8.17,0,0,1,.11-1.31l-4.29-.68a12.14,12.14,0,0,0-.16,2Zm16.75-1.31,4.29-.67a13.05,13.05,0,0,0-.47-1.94L24.2,13.48a9.54,9.54,0,0,1,.31,1.28ZM8.18,13.48a7.62,7.62,0,0,1,.5-1.22l-3.87-2A14.16,14.16,0,0,0,4,12.14l4.13,1.34ZM23.7,12.27l3.87-2a13,13,0,0,0-1.05-1.7L23,11.15a9.09,9.09,0,0,1,.69,1.12ZM9.37,11.14a9.07,9.07,0,0,1,.86-1h0L7.17,7.07h0a13.28,13.28,0,0,0-1.3,1.51Zm12.79-1,.92-.94,2.14-2.13h0A11.56,11.56,0,0,0,23.7,5.79L21.14,9.28a9.07,9.07,0,0,1,1,.86ZM11.25,9.27a9,9,0,0,1,1.12-.68l-2-3.86a13,13,0,0,0-1.71,1ZM20,8.59l2-3.85A13.1,13.1,0,0,0,20.14,4L18.8,8.09A8.72,8.72,0,0,1,20,8.6Zm-6.43-.5a8.08,8.08,0,0,1,1.29-.31L14.2,3.5A13.18,13.18,0,0,0,12.25,4l1.34,4.12Zm3.92-.31.68-4.27a12,12,0,0,0-2-.16V7.68a9.65,9.65,0,0,1,1.32.1Z"/><path class="cls-2" d="M16.19,22.52V19.26a3.1,3.1,0,0,1-.81-.1l-.84,3.15A6.49,6.49,0,0,0,16.19,22.52Zm1.64-.21a6.76,6.76,0,0,0,1.55-.64l-1.64-2.82a2.74,2.74,0,0,1-.75.3ZM13,21.67l1.64-2.82a3.51,3.51,0,0,1-.65-.5l0,0-1,1.08-1.26,1.24h0a6.47,6.47,0,0,0,1.32,1Zm7.71-1h0a6.8,6.8,0,0,0,1-1.32L18.89,17.7a3.51,3.51,0,0,1-.5.65Zm-10-1.33,2.82-1.63a3.29,3.29,0,0,1-.31-.75L10,17.79A6.12,6.12,0,0,0,10.66,19.33ZM22.35,17.8a6.56,6.56,0,0,0,.22-1.65H19.3a3.21,3.21,0,0,1-.1.81l3.15.84Zm-9.28-1.66a3.09,3.09,0,0,1,.11-.8L10,14.49a6.55,6.55,0,0,0-.21,1.65Zm6.13-.8,3.15-.84A6.12,6.12,0,0,0,21.71,13l-2.82,1.63A3.49,3.49,0,0,1,19.2,15.34Zm-5.71-.75A3,3,0,0,1,14,14h0l-1.16-1.17-1.13-1.15,0,0a6.45,6.45,0,0,0-1,1.31l2.83,1.64Zm-.67-1.82v0ZM18.39,14l1.16-1.16,1.18-1.12,0,0a6.47,6.47,0,0,0-1.32-1l-1.64,2.83a2.79,2.79,0,0,1,.64.49Zm-3.76-.5a2.9,2.9,0,0,1,.75-.31L14.54,10a6.51,6.51,0,0,0-1.54.64ZM17,13.14,17.84,10a6.13,6.13,0,0,0-1.65-.22V13a3.22,3.22,0,0,1,.81.11Z"/><path class="cls-3" d="M16.18,27.34V23.51A7.46,7.46,0,0,1,15,23.42l-.6,3.78a11.5,11.5,0,0,0,1.76.14ZM18,27.2a10.25,10.25,0,0,0,1.72-.41l-1.18-3.64a7.27,7.27,0,0,1-1.14.27Zm-5.26-.41,1.19-3.65a7.88,7.88,0,0,1-1.08-.44l-1.75,3.41A10.69,10.69,0,0,0,12.69,26.79Zm8.62-.67a11.24,11.24,0,0,0,1.52-.93l-2.27-3.1a6.27,6.27,0,0,1-1,.61ZM9.54,25.19l2.26-3.1a8,8,0,0,1-.89-.76L8.19,24h0A11.39,11.39,0,0,0,9.54,25.19Zm14.62-1.12,0,0a11.19,11.19,0,0,0,1.15-1.33l-3.11-2.26a7.85,7.85,0,0,1-.76.88l0,0,1.31,1.23ZM7,22.7l3.11-2.26a6.76,6.76,0,0,1-.61-1L6.11,21.19A11.78,11.78,0,0,0,7,22.7Zm19.22-1.5a11.12,11.12,0,0,0,.68-1.64l-3.66-1.18a6.72,6.72,0,0,1-.45,1.07ZM5.43,19.55l3.66-1.18a7.43,7.43,0,0,1-.27-1.13L5,17.83a11,11,0,0,0,.41,1.72Zm21.92-1.71a11.5,11.5,0,0,0,.14-1.76H23.64a7.46,7.46,0,0,1-.09,1.16ZM8.73,16.07a7.46,7.46,0,0,1,.09-1.16L5,14.31a11.5,11.5,0,0,0-.14,1.76Zm14.82-1.16,3.8-.59a11.32,11.32,0,0,0-.41-1.72l-3.66,1.18a7.43,7.43,0,0,1,.27,1.13ZM9.09,13.77a7.13,7.13,0,0,1,.45-1.07L6.11,11a10.58,10.58,0,0,0-.68,1.63l3.66,1.18ZM22.84,12.7,26.27,11a11,11,0,0,0-.93-1.5l-3.11,2.25a9.06,9.06,0,0,1,.61,1Zm-12.69-1a7.27,7.27,0,0,1,.76-.89h0L8.2,8.1h0A11.42,11.42,0,0,0,7,9.45Zm11.32-.88.82-.83,1.9-1.89h0A12.15,12.15,0,0,0,22.84,7l-2.27,3.1a7.15,7.15,0,0,1,.89.76Zm-9.66-.78a7.85,7.85,0,0,1,1-.61L11.06,6A10.69,10.69,0,0,0,9.55,7Zm7.77-.6L21.33,6a11.12,11.12,0,0,0-1.64-.68L18.5,9a8.43,8.43,0,0,1,1.08.44ZM13.89,9A7.27,7.27,0,0,1,15,8.73l-.6-3.79a11.74,11.74,0,0,0-1.73.41L13.89,9Zm3.47-.27L18,4.94a11.49,11.49,0,0,0-1.76-.13V8.64a7.59,7.59,0,0,1,1.17.09Z"/><path class="cls-3" d="M16.18,23.22V19.6a3.35,3.35,0,0,1-.89-.12L14.35,23A7.13,7.13,0,0,0,16.18,23.22ZM18,23a7.1,7.1,0,0,0,1.71-.71l-1.82-3.14a3.18,3.18,0,0,1-.83.35Zm-5.38-.71,1.82-3.14a3.2,3.2,0,0,1-.72-.55l0,0-1.15,1.21-1.4,1.36,0,0a7.23,7.23,0,0,0,1.46,1.13Zm8.55-1.12h0a7.29,7.29,0,0,0,1.13-1.47l-3.14-1.81a3.14,3.14,0,0,1-.55.71ZM10.05,19.67l3.14-1.81a3.18,3.18,0,0,1-.35-.83L9.34,18A6.94,6.94,0,0,0,10.05,19.67ZM23,18a7,7,0,0,0,.24-1.83H19.65a3.48,3.48,0,0,1-.12.9L23,18Zm-10.3-1.83a3.82,3.82,0,0,1,.11-.9l-3.5-.94a7.07,7.07,0,0,0-.24,1.83Zm6.8-.9,3.5-.93a7.1,7.1,0,0,0-.71-1.71l-3.14,1.81A3.18,3.18,0,0,1,19.53,15.24Zm-6.34-.83a3.41,3.41,0,0,1,.54-.71h0l-1.29-1.3L11.2,11.11l0,0a7.23,7.23,0,0,0-1.13,1.46l3.14,1.82Zm-.74-2v0Zm6.18,1.3,1.29-1.28,1.31-1.25,0,0A6.6,6.6,0,0,0,19.73,10l-1.81,3.13a3.64,3.64,0,0,1,.7.54Zm-4.17-.55a3.16,3.16,0,0,1,.83-.34l-.93-3.5a6.91,6.91,0,0,0-1.71.7Zm2.62-.34L18,9.3a7.07,7.07,0,0,0-1.83-.24v3.62a3.48,3.48,0,0,1,.9.12Z"/></g></g></svg>