<svg xmlns="http://www.w3.org/2000/svg" xmlns:xlink="http://www.w3.org/1999/xlink" viewBox="0 0 388.26 388.01"><defs><style>.cls-1{stroke:#2e2e4e;stroke-miterlimit:10;stroke-width:14px;fill:url(#linear-gradient);}.cls-2{fill:#2e2e4e;}</style><linearGradient id="linear-gradient" x1="771.03" y1="-75.17" x2="867.94" y2="-437.22" gradientTransform="translate(-566.84 -207.58) rotate(45)" gradientUnits="userSpaceOnUse"><stop offset="0" stop-color="#ff7a3b" stop-opacity="0.8"/><stop offset="1" stop-color="#f91e47" stop-opacity="0.8"/></linearGradient></defs><g id="Layer_2" data-name="Layer 2"><g id="Layer_1-2" data-name="Layer 1"><path class="cls-1" d="M326.81,62.41h0A189.26,189.26,0,0,0,145.91,13h0a185,185,0,0,0-132.7,132.7h0c-16.9,65.1,1.2,133.9,48.3,180.9h0c47,47,115.8,65.1,180.9,48.3h0a184.74,184.74,0,0,0,132.7-132.6h0C391.91,178.21,373.81,110.71,326.81,62.41Z"/><path class="cls-2" d="M315.21,73.92A172.69,172.69,0,0,0,150.13,28.79,168.79,168.79,0,0,0,29,149.89a176.12,176.12,0,0,0-5.66,44.23A169.75,169.75,0,0,0,194.11,364.66a176.39,176.39,0,0,0,44.08-5.61,168.6,168.6,0,0,0,121.1-121,170.81,170.81,0,0,0,5.61-43.38C364.9,150.36,347.56,107.15,315.21,73.92ZM342.4,269.45a18.87,18.87,0,0,1-9.29,16.26L270.4,322.1c-6.2,3.09-13.17,3.09-18.59,0L189.1,285.71a19.11,19.11,0,0,1-9.29-16.26V243.9l29.42-17v24.77a18.87,18.87,0,0,0,9.29,16.26l33.29,19.36c6.2,3.09,13.17,3.09,18.59,0l32.51-19.36a19.07,19.07,0,0,0,9.29-16.26V212.93a18.87,18.87,0,0,0-9.29-16.26l-33.29-19.36c-6.19-3.09-13.16-3.09-18.58,0l-42.58,24.78-29.43,17L136.45,243.9c-6.19,3.1-13.16,3.1-18.58,0L55.16,207.51a19.1,19.1,0,0,1-9.3-16.26V118.47A17,17,0,0,1,55.16,103l63.48-37.17c6.2-3.09,13.17-3.09,18.59,0l61.93,36.39a19.1,19.1,0,0,1,9.3,16.26V144.8l-29.43,17V136.28A18.87,18.87,0,0,0,169.74,120L136.45,99.89c-6.19-3.1-13.16-3.1-18.58,0L84.58,119.25a19.07,19.07,0,0,0-9.29,16.25v38.72a18.89,18.89,0,0,0,9.29,16.26l33.29,20.13c6.19,3.09,13.16,3.09,18.58,0L179,185.06l29.43-16.26,43.35-25.55c6.2-3.1,13.17-3.1,18.59,0l62.71,36.39a19.1,19.1,0,0,1,9.29,16.26Z"/></g></g></svg>