<svg xmlns="http://www.w3.org/2000/svg" xmlns:xlink="http://www.w3.org/1999/xlink" viewBox="0 0 32.05 32.06"><defs><linearGradient id="New_Gradient_Swatch_2" x1="-313.33" y1="140.16" x2="-305.3" y2="110.16" gradientTransform="translate(323.24 146.25) rotate(45)" gradientUnits="userSpaceOnUse"><stop offset="0" stop-color="#ff7a3b" stop-opacity="0.8"/><stop offset="1" stop-color="#f91e47" stop-opacity="0.8"/></linearGradient><linearGradient id="New_Gradient_Swatch_2-2" x1="-49.47" y1="-32.71" x2="-37.77" y2="-39.47" gradientTransform="translate(-20.06 61.99) rotate(90)" xlink:href="#New_Gradient_Swatch_2"/><linearGradient id="New_Gradient_Swatch_2-3" x1="-54.23" y1="-32.71" x2="-42.53" y2="-39.47" gradientTransform="translate(-20.06 61.99) rotate(90)" xlink:href="#New_Gradient_Swatch_2"/></defs><g style="isolation:isolate"><g id="Layer_2" data-name="Layer 2"><g id="Layer_1-2" data-name="Layer 1"><g style="mix-blend-mode:overlay"><path d="M27,5.05h0A15.53,15.53,0,0,0,12,1h0A15.52,15.52,0,0,0,1,12H1A15.52,15.52,0,0,0,5,27H5a15.55,15.55,0,0,0,15,4h0a15.54,15.54,0,0,0,11-11h0A15.55,15.55,0,0,0,27,5.05Z" style="fill:url(#New_Gradient_Swatch_2)"/><path d="M28.45,5.92c-.2-.26-.42-.51-.65-.76s-.29-.31-.44-.46l-.26-.25A16.05,16.05,0,0,0,11.87.55,15.85,15.85,0,0,0,5,4.43c-.24.22-.48.46-.71.71s-.45.5-.65.76a15.91,15.91,0,0,0-2.86,15c.11.34.22.67.36,1s.27.67.43,1a15.84,15.84,0,0,0,3.13,4.44A16,16,0,0,0,15,32c.34,0,.68,0,1,0s.65,0,1,0a15.56,15.56,0,0,0,3.15-.51,16.06,16.06,0,0,0,10.32-8.59c.16-.32.3-.66.43-1a8.49,8.49,0,0,0,.36-1c.09-.25.16-.5.23-.75A16.06,16.06,0,0,0,28.45,5.92Zm1.78,15c-.11.34-.24.68-.38,1s-.31.68-.48,1a15.05,15.05,0,0,1-9.46,7.62A15.85,15.85,0,0,1,17,31a14.84,14.84,0,0,1-2,0,15,15,0,0,1-9.63-4.36,14.65,14.65,0,0,1-2.71-3.73,10.16,10.16,0,0,1-.48-1c-.14-.33-.27-.66-.38-1A15,15,0,0,1,4.33,6.6q.31-.39.66-.75a9.49,9.49,0,0,1,.7-.72,14.84,14.84,0,0,1,6.44-3.61A15.06,15.06,0,0,1,26.39,5.16l.26.25.44.46c.23.24.44.5.65.76a15.08,15.08,0,0,1,2.8,13.3C30.45,20.27,30.35,20.6,30.23,20.93Z" style="fill:#2e2e4e"/></g><polygon points="22.78 22.28 22.78 14.47 16.03 10.57 9.27 14.47 9.27 22.28 16.03 26.18 22.78 22.28" style="fill:url(#New_Gradient_Swatch_2-2)"/><path d="M22.78,13.32l-1-.57L16,9.42l-5.75,3.32-2,1.16v9l.12.07L15,26.76l1,.58,1-.58,6.64-3.83.12-.07v-9Zm-1,8.38L17,24.45,16,25l-1-.58L10.27,21.7V15.06L16,11.73l5.76,3.33Z" style="fill:#2e2e4e"/><polygon points="22.78 17.52 22.78 9.72 16.03 5.82 9.27 9.72 9.27 17.52 16.03 21.42 22.78 17.52" style="fill:url(#New_Gradient_Swatch_2-3)"/><path d="M22.9,8.64,16,4.67,9.18,8.62l-.9.52h0v9l1,.58,1,.58L15,22l1,.58L17,22l4.76-2.75,1-.57,1-.58v-9ZM21.78,17,17,19.69l-1,.58-1-.58L10.27,17V10.3L16,7l5.76,3.33Z" style="fill:#2e2e4e"/><polyline points="27.8 5.16 27.45 5.5 27.09 5.87 23.78 9.18 23.11 9.85" style="fill:none"/><path d="M28.45,5.92l-.35.35-.36.36-3.92,3.93,0,0-.67-.67-.71-.71.5-.5,3.49-3.48.35-.36.36-.35.26.25c.15.15.3.3.44.46S28.25,5.66,28.45,5.92Z" style="fill:#2e2e4e"/><polyline points="4.28 5.13 4.63 5.49 4.99 5.84 8.27 9.13 8.28 9.13 8.99 9.85" style="fill:none"/><path d="M9.7,9.14,9,9.85l-.7.71L3.63,5.9c.2-.26.42-.51.65-.76s.47-.49.71-.71Z" style="fill:#2e2e4e"/><path d="M17,14.07V32c-.33,0-.65,0-1,0s-.68,0-1,0v-18Z" style="fill:#2e2e4e"/></g></g></g></svg>