<svg xmlns="http://www.w3.org/2000/svg" xmlns:xlink="http://www.w3.org/1999/xlink" viewBox="0 0 106.39 32.06"><defs><linearGradient id="linear-gradient" x1="-339.08" y1="103.64" x2="-331.04" y2="73.64" gradientTransform="translate(315.63 190.28) rotate(45)" gradientUnits="userSpaceOnUse"><stop offset="0" stop-color="#ff7a3b" stop-opacity="0.8"/><stop offset="1" stop-color="#f91e47" stop-opacity="0.8"/></linearGradient><radialGradient id="radial-gradient" cx="-335.06" cy="88.64" r="7.14" gradientTransform="translate(315.63 190.28) rotate(45)" gradientUnits="userSpaceOnUse"><stop offset="0" stop-color="#ff7a3b"/><stop offset="1" stop-color="#f91e47"/></radialGradient><radialGradient id="radial-gradient-2" cx="105.12" cy="0.75" r="71.25" gradientTransform="translate(0 5.13) scale(1 1.01)" xlink:href="#radial-gradient"/></defs><g style="isolation:isolate"><g id="Layer_2" data-name="Layer 2"><g id="Layer_1-2" data-name="Layer 1"><path d="M27,5.05h0A15.52,15.52,0,0,0,12,1h0A15.54,15.54,0,0,0,1,12H1a15.52,15.52,0,0,0,4,15h0a15.52,15.52,0,0,0,15,4h0a15.54,15.54,0,0,0,11-11h0A15.52,15.52,0,0,0,27,5.05Z" style="stroke:#2e2e4e;stroke-miterlimit:10;mix-blend-mode:overlay;fill:url(#linear-gradient)"/><polygon points="23.41 14.05 18.01 8.65 10.63 10.63 8.65 18.01 14.05 23.41 21.43 21.43 23.41 14.05" style="stroke:#2e2e4e;stroke-miterlimit:5;stroke-width:2px;fill:url(#radial-gradient)"/><line x1="10.58" y1="10.62" x2="5.08" y2="5.11" style="fill:none;stroke:#2e2e4e;stroke-miterlimit:5;stroke-width:2px"/><line x1="31.43" y1="14.04" x2="23.39" y2="14.04" style="fill:none;stroke:#2e2e4e;stroke-miterlimit:5;stroke-width:2px"/><line x1="14.01" y1="31.46" x2="14.01" y2="23.42" style="fill:none;stroke:#2e2e4e;stroke-miterlimit:5;stroke-width:2px"/><path d="M42.71,8a3.27,3.27,0,0,0-1.6-1,7.9,7.9,0,0,0-2.4-.31c-.94,0-1.79,0-2.54.06s-1.48.08-2.18.13V19.71l2.19.13c.77,0,1.61.06,2.53.06a8.23,8.23,0,0,0,2.4-.31,3.29,3.29,0,0,0,1.6-1.05,4.66,4.66,0,0,0,.88-2,16.24,16.24,0,0,0,.27-3.25A16.24,16.24,0,0,0,43.59,10,4.76,4.76,0,0,0,42.71,8Zm-2.64,7.58a2,2,0,0,1-.45,1.1,1.28,1.28,0,0,1-.91.3l-1.25,0V9.57h1.25a1.28,1.28,0,0,1,.91.3,2,2,0,0,1,.45,1.1,16.67,16.67,0,0,1,.12,2.3A16.77,16.77,0,0,1,40.07,15.57Z" style="stroke:#2e2e4e;stroke-miterlimit:10;stroke-width:0.75px;fill:url(#radial-gradient-2)"/><path d="M52.81,15.32a2.3,2.3,0,0,0,.66-1.88,3.2,3.2,0,0,0-1-2.49,4.78,4.78,0,0,0-3.2-.84,6,6,0,0,0-2.64.49,2.89,2.89,0,0,0-1.45,1.58,7.82,7.82,0,0,0-.45,2.94,7.11,7.11,0,0,0,.44,2.66,3.13,3.13,0,0,0,1.45,1.61,5.65,5.65,0,0,0,2.67.54,12.74,12.74,0,0,0,1.4-.07,8.33,8.33,0,0,0,1.32-.26,5.38,5.38,0,0,0,1.2-.52L53,16.72c-.69.09-1.32.15-1.9.17s-1,0-1.35,0a1.57,1.57,0,0,1-.9-.21,1,1,0,0,1-.41-.69s0-.09,0-.13h2A3.82,3.82,0,0,0,52.81,15.32Zm-2.7-1.39a1.2,1.2,0,0,1-.68.12H48.31a4.18,4.18,0,0,1,.07-.73.75.75,0,0,1,.33-.57,1.36,1.36,0,0,1,.7-.12,1.31,1.31,0,0,1,.66.13.7.7,0,0,1,.19.58C50.26,13.65,50.21,13.85,50.11,13.93Z" style="stroke:#2e2e4e;stroke-miterlimit:10;stroke-width:0.75px;fill:url(#radial-gradient-2)"/><polygon points="63.31 10.37 60 10.37 58.59 13.65 57.19 10.37 53.87 10.37 56.02 14.95 53.7 19.71 57.03 19.71 58.59 16.2 60.16 19.71 63.49 19.71 61.17 14.95 63.31 10.37" style="stroke:#2e2e4e;stroke-miterlimit:10;stroke-width:0.75px;fill:url(#radial-gradient-2)"/><path d="M70.32,12.11l-2-1a3.46,3.46,0,0,1-.76-.44.57.57,0,0,1-.2-.44.54.54,0,0,1,0-.24.39.39,0,0,1,.16-.15.79.79,0,0,1,.31-.07,3.79,3.79,0,0,1,.51,0h2.1l1.78,0,.21-2.59a7.33,7.33,0,0,0-2.07-.53,18,18,0,0,0-1.94-.13,10.53,10.53,0,0,0-2.12.19,3.24,3.24,0,0,0-1.4.62,2.42,2.42,0,0,0-.78,1.16,5.57,5.57,0,0,0-.25,1.83,4.22,4.22,0,0,0,.56,2.29,4.81,4.81,0,0,0,1.91,1.59l2.19,1.12a3.09,3.09,0,0,1,.46.24.85.85,0,0,1,.23.24.67.67,0,0,1,.06.3.37.37,0,0,1-.09.27.48.48,0,0,1-.32.14,3.89,3.89,0,0,1-.68,0h-.87l-1.38,0-1.76-.05L64,19.34a14,14,0,0,0,2.57.53c.76.07,1.33.1,1.7.1a9.38,9.38,0,0,0,2.16-.21,3.19,3.19,0,0,0,1.38-.68,2.46,2.46,0,0,0,.75-1.21A6.53,6.53,0,0,0,72.8,16a4.38,4.38,0,0,0-.55-2.32A4.54,4.54,0,0,0,70.32,12.11Z" style="stroke:#2e2e4e;stroke-miterlimit:10;stroke-width:0.75px;fill:url(#radial-gradient-2)"/><path d="M83.19,15.62c0,.28-.06.55-.08.82s0,.56-.07.84h-.19c0-.28,0-.56-.07-.84s-.07-.54-.09-.82l-.43-4.09a1.31,1.31,0,0,0-.37-.84,1.06,1.06,0,0,0-.77-.32H79.28a1.07,1.07,0,0,0-.77.32,1.29,1.29,0,0,0-.36.82l-.45,4.11c0,.28,0,.55-.07.82s-.06.56-.08.84h-.19c0-.28,0-.56,0-.84s0-.54-.08-.82l-.57-5.25H73.33L75,18.72a1.22,1.22,0,0,0,.39.72,1,1,0,0,0,.7.27h2.32a1.06,1.06,0,0,0,.78-.32,1.31,1.31,0,0,0,.37-.84L80,14.31l.06-.83c0-.26,0-.54,0-.81h.21c0,.27,0,.55,0,.81s0,.55.05.83l.47,4.24a1.26,1.26,0,0,0,.37.84,1.06,1.06,0,0,0,.78.32h2.35a1,1,0,0,0,.71-.27,1.26,1.26,0,0,0,.38-.72l1.63-8.35H83.75Z" style="stroke:#2e2e4e;stroke-miterlimit:10;stroke-width:0.75px;fill:url(#radial-gradient-2)"/><path d="M94.35,10.46a4.74,4.74,0,0,0-1.92-.35c-.4,0-.88,0-1.44.07s-1.11.1-1.67.17a13.46,13.46,0,0,0-1.45.23l.31,2.48c.68,0,1.32-.06,1.93-.07l1.52,0a.94.94,0,0,1,.73.22,1.07,1.07,0,0,1,.22.71V14h-2.5a2.78,2.78,0,0,0-1.93.64,2.28,2.28,0,0,0-.71,1.77v.93a2.7,2.7,0,0,0,.38,1.47,2.34,2.34,0,0,0,1,.88,3.11,3.11,0,0,0,1.36.3,3,3,0,0,0,1.44-.33,3.19,3.19,0,0,0,1-.81A4.12,4.12,0,0,0,93,18.4l.31,1.31h2.67V13.92a5.33,5.33,0,0,0-.41-2.29A2.4,2.4,0,0,0,94.35,10.46Zm-3,6.86a.71.71,0,0,1-.51-.17.56.56,0,0,1-.16-.41v-.3a.6.6,0,0,1,.15-.42.61.61,0,0,1,.45-.16h1.27v1c-.13.09-.26.2-.4.28A1.8,1.8,0,0,1,91.38,17.32Z" style="stroke:#2e2e4e;stroke-miterlimit:10;stroke-width:0.75px;fill:url(#radial-gradient-2)"/><path d="M105.36,11.46a2.3,2.3,0,0,0-2.22-1.31,3.8,3.8,0,0,0-1.31.23,3.55,3.55,0,0,0-1.08.62,2.42,2.42,0,0,0-.55.66l-.28-1.29H97.23v12.7h3.36V21.22c0-.43,0-.89,0-1.36,0-.25,0-.46,0-.69a2.29,2.29,0,0,0,.75.48A4.4,4.4,0,0,0,103,20a3.18,3.18,0,0,0,1.67-.4,2.5,2.5,0,0,0,1-1.45,9.84,9.84,0,0,0,.35-3A8.34,8.34,0,0,0,105.36,11.46Zm-2.89,5.2a.72.72,0,0,1-.82.75,1.94,1.94,0,0,1-.79-.13l-.27-.11V13.3a4.83,4.83,0,0,1,.45-.23,1.7,1.7,0,0,1,.66-.1.81.81,0,0,1,.49.13.89.89,0,0,1,.28.61,8.69,8.69,0,0,1,.09,1.48A8.72,8.72,0,0,1,102.47,16.66Z" style="stroke:#2e2e4e;stroke-miterlimit:10;stroke-width:0.75px;fill:url(#radial-gradient-2)"/></g></g></g></svg>