<svg xmlns="http://www.w3.org/2000/svg" xmlns:xlink="http://www.w3.org/1999/xlink" viewBox="0 0 388.26 388"><defs><style>.cls-1{stroke:#2e2e4e;stroke-miterlimit:10;stroke-width:14px;fill:url(#linear-gradient);}.cls-2{fill:#2e2e4e;}</style><linearGradient id="linear-gradient" x1="664.06" y1="729.04" x2="760.97" y2="1091.09" gradientTransform="matrix(0.71, 0.71, 0.71, -0.71, -954.23, 334.23)" gradientUnits="userSpaceOnUse"><stop offset="0" stop-color="#ff7a3b" stop-opacity="0.8"/><stop offset="1" stop-color="#f91e47" stop-opacity="0.8"/></linearGradient></defs><g id="Layer_2" data-name="Layer 2"><g id="harmony_border" data-name="harmony border"><path class="cls-1" d="M326.81,62.45h0A189.25,189.25,0,0,0,145.91,13h0a185,185,0,0,0-132.7,132.7h0c-16.9,65.1,1.2,133.9,48.3,180.9h0c47,47,115.8,65.1,180.9,48.3h0a184.72,184.72,0,0,0,132.7-132.6h0C391.91,178.25,373.81,110.75,326.81,62.45Z"/><path class="cls-2" d="M362.13,194.78a168,168,0,1,1-168-168,168,168,0,0,1,168,168ZM197,331.68l0-47.13a91.84,91.84,0,0,1-14.35-1.13L175.23,330a139.82,139.82,0,0,0,21.73,1.7ZM218.67,330a140,140,0,0,0,21.2-5.05l-14.55-44.84a91.67,91.67,0,0,1-14,3.33ZM154,324.92l14.59-44.83a91.36,91.36,0,0,1-13.26-5.48l-21.5,42A137.57,137.57,0,0,0,154,324.92Zm106-8.27a138.74,138.74,0,0,0,18.61-11.36l-27.82-38.12a90.24,90.24,0,0,1-12.24,7.48ZM115.25,305.21l27.86-38.09a93.82,93.82,0,0,1-10.94-9.33L98.71,291.1l0,0A138.79,138.79,0,0,0,115.25,305.21ZM295,291.41l.29-.29a139.35,139.35,0,0,0,14.11-16.43l-38.21-27.77a92.52,92.52,0,0,1-9.34,10.88l-.47.48,16.08,15.13ZM84.56,274.6l38.23-27.74a91,91,0,0,1-7.51-12.2L73.14,256.05a137.37,137.37,0,0,0,11.42,18.54ZM320.8,256.15A138.62,138.62,0,0,0,329.16,236l-45-14.55a91,91,0,0,1-5.5,13.22Zm-256-20.21,45-14.52a90.71,90.71,0,0,1-3.35-13.94l-46.71,7.34A137.71,137.71,0,0,0,64.81,236Zm269.43-21A140.14,140.14,0,0,0,336,193.27l-47.29,0a91.52,91.52,0,0,1-1.13,14.31ZM105.33,193.17a92.55,92.55,0,0,1,1.12-14.31l-46.71-7.34A138.68,138.68,0,0,0,58,193.16h47.3Zm182.22-14.24,46.72-7.31a139.24,139.24,0,0,0-5-21.14l-45,14.49a91.34,91.34,0,0,1,3.33,13.95Zm-177.75-14a91.63,91.63,0,0,1,5.49-13.24l-42.14-21.4a138.41,138.41,0,0,0-8.34,20.1l45,14.54Zm168.93-13.17,42.16-21.37a137.41,137.41,0,0,0-11.41-18.55l-38.25,27.73a90.33,90.33,0,0,1,7.5,12.2ZM122.81,139.48a92.26,92.26,0,0,1,9.37-10.91l.1-.09L98.84,95.15l-.09.09a140.22,140.22,0,0,0-14.16,16.49ZM262,128.74l10.1-10.27,23.24-23.16-.07-.08a140.62,140.62,0,0,0-16.45-14l-27.87,38.07a91.51,91.51,0,0,1,10.88,9.3l.17.17Zm-118.76-9.57a91,91,0,0,1,12.24-7.47L134,69.69a138.74,138.74,0,0,0-18.61,11.36Zm95.48-7.39,21.52-42a138.65,138.65,0,0,0-20.16-8.34L225.44,106.3a90.87,90.87,0,0,1,13.27,5.49Zm-70-5.54a93.42,93.42,0,0,1,14-3.32l-7.32-46.57a138.89,138.89,0,0,0-21.21,5l14.53,44.85ZM211.44,103l7.4-46.56a139.57,139.57,0,0,0-21.71-1.71l0,47.13A92.07,92.07,0,0,1,211.44,103ZM197,281V236.48A43.12,43.12,0,0,1,186,235l-11.5,43A87.28,87.28,0,0,0,197,281Zm22.52-2.95a86.9,86.9,0,0,0,21-8.69l-22.29-38.55A42.13,42.13,0,0,1,208,235Zm-66.08-8.7,22.3-38.54a42.94,42.94,0,0,1-8.81-6.78l-.41-.4-14.07,14.81-17.27,16.82.26.24a87.47,87.47,0,0,0,18,13.85Zm105.12-13.83h0a87.63,87.63,0,0,0,13.84-18l-38.55-22.29a43.59,43.59,0,0,1-6.78,8.8Zm-137-18.1,38.59-22.24A41.81,41.81,0,0,1,155.89,205l-43,11.45A87,87,0,0,0,121.52,237.42ZM281.1,216.51a87.59,87.59,0,0,0,3-22.51H239.52a42.69,42.69,0,0,1-1.45,11l43,11.5ZM154.46,193.93a42.69,42.69,0,0,1,1.45-11l-43-11.52a87.15,87.15,0,0,0-3,22.5l44.54,0Zm83.62-11,43-11.46a87.07,87.07,0,0,0-8.69-21l-38.58,22.26A41.93,41.93,0,0,1,238.08,183Zm-77.93-10.27a43.14,43.14,0,0,1,6.68-8.7l.11-.11L151,148,135.7,132.17l-.28.27a86.86,86.86,0,0,0-13.81,17.94l38.54,22.31ZM151,148l.19.18Zm76.07,16,15.78-15.76L259,132.84l-.4-.41a87.43,87.43,0,0,0-18-13.82l-22.32,38.53a42.56,42.56,0,0,1,8.71,6.68l.11.11Zm-51.33-6.82A42.2,42.2,0,0,1,186,152.89l-11.46-43a86.41,86.41,0,0,0-21,8.69Zm32.29-4.2,11.52-43a87.3,87.3,0,0,0-22.52-3l0,44.52a42.79,42.79,0,0,1,11,1.45Z"/></g></g></svg>